<svg xmlns="http://www.w3.org/2000/svg" xmlns:xlink="http://www.w3.org/1999/xlink" contentStyleType="text/css" data-diagram-type="CLASS" height="436px" preserveAspectRatio="none" style="width:422px;height:436px;background:#FFFFFF;" version="1.1" viewBox="0 0 422 436" width="422px" zoomAndPan="magnify"><defs/><g><!--class IRule--><g class="entity" data-entity="IRule" data-source-line="2" data-uid="ent0002" id="entity_IRule"><rect fill="#F1F1F1" height="65.6094" rx="2.5" ry="2.5" style="stroke:#181818;stroke-width:0.5;" width="127.9238" x="129.5" y="15.5"/><ellipse cx="172.9585" cy="31.5" fill="#B4A7E5" rx="11" ry="11" style="stroke:#181818;stroke-width:1;"/><path d="M173.9117,28.1406 L173.9117,34.7969 L175.6304,34.7969 Q176.2398,34.7969 176.5054,35.0313 Q176.771,35.2656 176.771,35.6563 Q176.771,36.0313 176.5054,36.2656 Q176.2398,36.5 175.6304,36.5 L170.4898,36.5 Q169.8804,36.5 169.6148,36.2656 Q169.3492,36.0313 169.3492,35.6406 Q169.3492,35.2656 169.6148,35.0313 Q169.8804,34.7969 170.4898,34.7969 L172.2085,34.7969 L172.2085,28.1406 L170.4898,28.1406 Q169.8804,28.1406 169.6148,27.9063 Q169.3492,27.6719 169.3492,27.2813 Q169.3492,26.9063 169.6148,26.6719 Q169.8804,26.4375 170.4898,26.4375 L175.6304,26.4375 Q176.2398,26.4375 176.5054,26.6719 Q176.771,26.9063 176.771,27.2813 Q176.771,27.6719 176.5054,27.9063 Q176.2398,28.1406 175.6304,28.1406 L173.9117,28.1406 Z " fill="#000000"/><text fill="#000000" font-family="sans-serif" font-size="14" font-style="italic" lengthAdjust="spacing" textLength="32.6826" x="193.2827" y="37.2285">IRule</text><line style="stroke:#181818;stroke-width:0.5;" x1="130.5" x2="256.4238" y1="47.5" y2="47.5"/><line style="stroke:#181818;stroke-width:0.5;" x1="130.5" x2="256.4238" y1="55.5" y2="55.5"/><text fill="#000000" font-family="sans-serif" font-size="14" lengthAdjust="spacing" textLength="115.9238" x="135.5" y="74.0332">IRulesResultEval()</text></g><!--class IRulesResult--><g class="entity" data-entity="IRulesResult" data-source-line="3" data-uid="ent0003" id="entity_IRulesResult"><rect fill="#F1F1F1" height="83.2188" rx="2.5" ry="2.5" style="stroke:#181818;stroke-width:0.5;" width="111.3652" x="293" y="7"/><ellipse cx="308" cy="23" fill="#B4A7E5" rx="11" ry="11" style="stroke:#181818;stroke-width:1;"/><path d="M308.9531,19.6406 L308.9531,26.2969 L310.6719,26.2969 Q311.2813,26.2969 311.5469,26.5313 Q311.8125,26.7656 311.8125,27.1563 Q311.8125,27.5313 311.5469,27.7656 Q311.2813,28 310.6719,28 L305.5313,28 Q304.9219,28 304.6563,27.7656 Q304.3906,27.5313 304.3906,27.1406 Q304.3906,26.7656 304.6563,26.5313 Q304.9219,26.2969 305.5313,26.2969 L307.25,26.2969 L307.25,19.6406 L305.5313,19.6406 Q304.9219,19.6406 304.6563,19.4063 Q304.3906,19.1719 304.3906,18.7813 Q304.3906,18.4063 304.6563,18.1719 Q304.9219,17.9375 305.5313,17.9375 L310.6719,17.9375 Q311.2813,17.9375 311.5469,18.1719 Q311.8125,18.4063 311.8125,18.7813 Q311.8125,19.1719 311.5469,19.4063 Q311.2813,19.6406 310.6719,19.6406 L308.9531,19.6406 Z " fill="#000000"/><text fill="#000000" font-family="sans-serif" font-size="14" font-style="italic" lengthAdjust="spacing" textLength="79.3652" x="322" y="28.7285">IRulesResult</text><line style="stroke:#181818;stroke-width:0.5;" x1="294" x2="403.3652" y1="39" y2="39"/><text fill="#000000" font-family="sans-serif" font-size="14" lengthAdjust="spacing" textLength="63.7998" x="299" y="57.5332">IsSuccess</text><line style="stroke:#181818;stroke-width:0.5;" x1="294" x2="403.3652" y1="64.6094" y2="64.6094"/><text fill="#000000" font-family="sans-serif" font-size="14" lengthAdjust="spacing" textLength="59.9102" x="299" y="83.1426">Execute()</text></g><!--class BaseRule--><g class="entity" data-entity="BaseRule" data-source-line="4" data-uid="ent0004" id="entity_BaseRule"><rect fill="#F1F1F1" height="65.6094" rx="2.5" ry="2.5" style="stroke:#181818;stroke-width:0.5;" width="127.9238" x="284.5" y="167.5"/><ellipse cx="315.3493" cy="183.5" fill="#ADD1B2" rx="11" ry="11" style="stroke:#181818;stroke-width:1;"/><path d="M318.1149,179.375 Q318.2712,179.1563 318.4587,179.0469 Q318.6462,178.9375 318.8649,178.9375 Q319.2399,178.9375 319.4743,179.1953 Q319.7087,179.4531 319.7087,180.0625 L319.7087,181.5156 Q319.7087,182.125 319.4743,182.3906 Q319.2399,182.6563 318.8649,182.6563 Q318.5212,182.6563 318.3181,182.4531 Q318.1149,182.2656 318.0056,181.75 Q317.9587,181.3906 317.7712,181.2031 Q317.4431,180.8281 316.8337,180.6094 Q316.2243,180.3906 315.5993,180.3906 Q314.8337,180.3906 314.2009,180.7188 Q313.5681,181.0469 313.0759,181.7969 Q312.5837,182.5469 312.5837,183.5781 L312.5837,184.6719 Q312.5837,185.9063 313.4743,186.7266 Q314.3649,187.5469 315.9587,187.5469 Q316.8962,187.5469 317.5524,187.2969 Q317.9431,187.1406 318.3649,186.7031 Q318.6306,186.4375 318.779,186.3594 Q318.9274,186.2813 319.1306,186.2813 Q319.4587,186.2813 319.7165,186.5391 Q319.9743,186.7969 319.9743,187.1406 Q319.9743,187.4844 319.6306,187.8906 Q319.1306,188.4688 318.3337,188.7969 Q317.2556,189.25 315.9587,189.25 Q314.4431,189.25 313.2399,188.625 Q312.2556,188.125 311.5681,187.0547 Q310.8806,185.9844 310.8806,184.7031 L310.8806,183.5469 Q310.8806,182.2188 311.4978,181.0703 Q312.1149,179.9219 313.2087,179.3047 Q314.3024,178.6875 315.5368,178.6875 Q316.2712,178.6875 316.9196,178.8516 Q317.5681,179.0156 318.1149,179.375 Z " fill="#000000"/><text fill="#000000" font-family="sans-serif" font-size="14" lengthAdjust="spacing" textLength="60.7031" x="332.8714" y="189.2285">BaseRule</text><line style="stroke:#181818;stroke-width:0.5;" x1="285.5" x2="411.4238" y1="199.5" y2="199.5"/><line style="stroke:#181818;stroke-width:0.5;" x1="285.5" x2="411.4238" y1="207.5" y2="207.5"/><text fill="#000000" font-family="sans-serif" font-size="14" lengthAdjust="spacing" textLength="115.9238" x="290.5" y="226.0332">IRulesResultEval()</text></g><!--class Rule--><g class="entity" data-entity="Rule" data-source-line="5" data-uid="ent0005" id="entity_Rule"><rect fill="#F1F1F1" height="65.6094" rx="2.5" ry="2.5" style="stroke:#181818;stroke-width:0.5;" width="127.9238" x="287.5" y="337"/><ellipse cx="332.8154" cy="353" fill="#ADD1B2" rx="11" ry="11" style="stroke:#181818;stroke-width:1;"/><path d="M335.5811,348.875 Q335.7373,348.6563 335.9248,348.5469 Q336.1123,348.4375 336.3311,348.4375 Q336.7061,348.4375 336.9404,348.6953 Q337.1748,348.9531 337.1748,349.5625 L337.1748,351.0156 Q337.1748,351.625 336.9404,351.8906 Q336.7061,352.1563 336.3311,352.1563 Q335.9873,352.1563 335.7842,351.9531 Q335.5811,351.7656 335.4717,351.25 Q335.4248,350.8906 335.2373,350.7031 Q334.9092,350.3281 334.2998,350.1094 Q333.6904,349.8906 333.0654,349.8906 Q332.2998,349.8906 331.667,350.2188 Q331.0342,350.5469 330.542,351.2969 Q330.0498,352.0469 330.0498,353.0781 L330.0498,354.1719 Q330.0498,355.4063 330.9404,356.2266 Q331.8311,357.0469 333.4248,357.0469 Q334.3623,357.0469 335.0186,356.7969 Q335.4092,356.6406 335.8311,356.2031 Q336.0967,355.9375 336.2451,355.8594 Q336.3936,355.7813 336.5967,355.7813 Q336.9248,355.7813 337.1826,356.0391 Q337.4404,356.2969 337.4404,356.6406 Q337.4404,356.9844 337.0967,357.3906 Q336.5967,357.9688 335.7998,358.2969 Q334.7217,358.75 333.4248,358.75 Q331.9092,358.75 330.7061,358.125 Q329.7217,357.625 329.0342,356.5547 Q328.3467,355.4844 328.3467,354.2031 L328.3467,353.0469 Q328.3467,351.7188 328.9639,350.5703 Q329.5811,349.4219 330.6748,348.8047 Q331.7686,348.1875 333.0029,348.1875 Q333.7373,348.1875 334.3857,348.3516 Q335.0342,348.5156 335.5811,348.875 Z " fill="#000000"/><text fill="#000000" font-family="sans-serif" font-size="14" lengthAdjust="spacing" textLength="28.793" x="353.3154" y="358.7285">Rule</text><line style="stroke:#181818;stroke-width:0.5;" x1="288.5" x2="414.4238" y1="369" y2="369"/><line style="stroke:#181818;stroke-width:0.5;" x1="288.5" x2="414.4238" y1="377" y2="377"/><text fill="#000000" font-family="sans-serif" font-size="14" lengthAdjust="spacing" textLength="115.9238" x="293.5" y="395.5332">IRulesResultEval()</text></g><!--class RulesChain--><g class="entity" data-entity="RulesChain" data-source-line="6" data-uid="ent0006" id="entity_RulesChain"><rect fill="#F1F1F1" height="100.8281" rx="2.5" ry="2.5" style="stroke:#181818;stroke-width:0.5;" width="189.4268" x="40" y="150"/><ellipse cx="94.2773" cy="166" fill="#ADD1B2" rx="11" ry="11" style="stroke:#181818;stroke-width:1;"/><path d="M97.043,161.875 Q97.1992,161.6563 97.3867,161.5469 Q97.5742,161.4375 97.793,161.4375 Q98.168,161.4375 98.4023,161.6953 Q98.6367,161.9531 98.6367,162.5625 L98.6367,164.0156 Q98.6367,164.625 98.4023,164.8906 Q98.168,165.1563 97.793,165.1563 Q97.4492,165.1563 97.2461,164.9531 Q97.043,164.7656 96.9336,164.25 Q96.8867,163.8906 96.6992,163.7031 Q96.3711,163.3281 95.7617,163.1094 Q95.1523,162.8906 94.5273,162.8906 Q93.7617,162.8906 93.1289,163.2188 Q92.4961,163.5469 92.0039,164.2969 Q91.5117,165.0469 91.5117,166.0781 L91.5117,167.1719 Q91.5117,168.4063 92.4023,169.2266 Q93.293,170.0469 94.8867,170.0469 Q95.8242,170.0469 96.4805,169.7969 Q96.8711,169.6406 97.293,169.2031 Q97.5586,168.9375 97.707,168.8594 Q97.8555,168.7813 98.0586,168.7813 Q98.3867,168.7813 98.6445,169.0391 Q98.9023,169.2969 98.9023,169.6406 Q98.9023,169.9844 98.5586,170.3906 Q98.0586,170.9688 97.2617,171.2969 Q96.1836,171.75 94.8867,171.75 Q93.3711,171.75 92.168,171.125 Q91.1836,170.625 90.4961,169.5547 Q89.8086,168.4844 89.8086,167.2031 L89.8086,166.0469 Q89.8086,164.7188 90.4258,163.5703 Q91.043,162.4219 92.1367,161.8047 Q93.2305,161.1875 94.4648,161.1875 Q95.1992,161.1875 95.8477,161.3516 Q96.4961,161.5156 97.043,161.875 Z " fill="#000000"/><text fill="#000000" font-family="sans-serif" font-size="14" lengthAdjust="spacing" textLength="72.3721" x="114.7773" y="171.7285">RulesChain</text><line style="stroke:#181818;stroke-width:0.5;" x1="41" x2="228.4268" y1="182" y2="182"/><text fill="#000000" font-family="sans-serif" font-size="14" lengthAdjust="spacing" textLength="65.3652" x="46" y="200.5332">IRule Rule</text><text fill="#000000" font-family="sans-serif" font-size="14" lengthAdjust="spacing" textLength="85.6064" x="46" y="218.1426">IsLastInChain</text><text fill="#000000" font-family="sans-serif" font-size="14" lengthAdjust="spacing" textLength="177.4268" x="46" y="235.752">List&lt;RulesChain&gt; ElseRules</text><line style="stroke:#181818;stroke-width:0.5;" x1="41" x2="228.4268" y1="242.8281" y2="242.8281"/></g><!--class RulesEvaluator--><g class="entity" data-entity="RulesEvaluator" data-source-line="7" data-uid="ent0007" id="entity_RulesEvaluator"><rect fill="#F1F1F1" height="118.4375" rx="2.5" ry="2.5" style="stroke:#181818;stroke-width:0.5;" width="245.4268" x="7" y="311"/><ellipse cx="77.9946" cy="327" fill="#ADD1B2" rx="11" ry="11" style="stroke:#181818;stroke-width:1;"/><path d="M80.7603,322.875 Q80.9165,322.6563 81.104,322.5469 Q81.2915,322.4375 81.5103,322.4375 Q81.8853,322.4375 82.1196,322.6953 Q82.354,322.9531 82.354,323.5625 L82.354,325.0156 Q82.354,325.625 82.1196,325.8906 Q81.8853,326.1563 81.5103,326.1563 Q81.1665,326.1563 80.9634,325.9531 Q80.7603,325.7656 80.6509,325.25 Q80.604,324.8906 80.4165,324.7031 Q80.0884,324.3281 79.479,324.1094 Q78.8696,323.8906 78.2446,323.8906 Q77.479,323.8906 76.8462,324.2188 Q76.2134,324.5469 75.7212,325.2969 Q75.229,326.0469 75.229,327.0781 L75.229,328.1719 Q75.229,329.4063 76.1196,330.2266 Q77.0103,331.0469 78.604,331.0469 Q79.5415,331.0469 80.1978,330.7969 Q80.5884,330.6406 81.0103,330.2031 Q81.2759,329.9375 81.4243,329.8594 Q81.5728,329.7813 81.7759,329.7813 Q82.104,329.7813 82.3618,330.0391 Q82.6196,330.2969 82.6196,330.6406 Q82.6196,330.9844 82.2759,331.3906 Q81.7759,331.9688 80.979,332.2969 Q79.9009,332.75 78.604,332.75 Q77.0884,332.75 75.8853,332.125 Q74.9009,331.625 74.2134,330.5547 Q73.5259,329.4844 73.5259,328.2031 L73.5259,327.0469 Q73.5259,325.7188 74.1431,324.5703 Q74.7603,323.4219 75.854,322.8047 Q76.9478,322.1875 78.1821,322.1875 Q78.9165,322.1875 79.5649,322.3516 Q80.2134,322.5156 80.7603,322.875 Z " fill="#000000"/><text fill="#000000" font-family="sans-serif" font-size="14" lengthAdjust="spacing" textLength="94.9375" x="98.4946" y="332.7285">RulesEvaluator</text><line style="stroke:#181818;stroke-width:0.5;" x1="8" x2="251.4268" y1="343" y2="343"/><line style="stroke:#181818;stroke-width:0.5;" x1="8" x2="251.4268" y1="351" y2="351"/><text fill="#000000" font-family="sans-serif" font-size="14" lengthAdjust="spacing" textLength="136.1787" x="13" y="369.5332">EvaluateRulesChain()</text><text fill="#000000" font-family="sans-serif" font-size="14" lengthAdjust="spacing" textLength="231.8682" x="13" y="387.1426">OtherwiseDo(Action otherwiseAction)</text><text fill="#000000" font-family="sans-serif" font-size="14" lengthAdjust="spacing" textLength="233.4268" x="13" y="404.752">OtherwiseEval( IRule alternativeRule)</text><text fill="#000000" font-family="sans-serif" font-size="14" lengthAdjust="spacing" textLength="145.5029" x="13" y="422.3613">RulesChain( IRule rule)</text></g><!--reverse link IRule to BaseRule--><g class="link" data-entity-1="IRule" data-entity-2="BaseRule" data-source-line="23" data-uid="lnk9" id="link_IRule_BaseRule"><path codeLine="23" d="M239.684,94.1985 C265.834,119.5085 289.17,142.08 315.3,167.37" fill="none" id="IRule-backto-BaseRule" style="stroke:#181818;stroke-width:1;stroke-dasharray:7,7;"/><polygon fill="none" points="226.75,81.68,235.5111,98.5098,243.8568,89.8872,226.75,81.68" style="stroke:#181818;stroke-width:1;"/></g><!--reverse link BaseRule to Rule--><g class="link" data-entity-1="BaseRule" data-entity-2="Rule" data-source-line="24" data-uid="lnk11" id="link_BaseRule_Rule"><path codeLine="24" d="M349.4016,251.7971 C349.9316,281.4571 350.39,307.17 350.92,336.8" fill="none" id="BaseRule-backto-Rule" style="stroke:#181818;stroke-width:1;"/><polygon fill="none" points="349.08,233.8,343.4026,251.9043,355.4006,251.6899,349.08,233.8" style="stroke:#181818;stroke-width:1;"/></g><!--link IRule to IRulesResult--><g class="link" data-entity-1="IRule" data-entity-2="IRulesResult" data-source-line="25" data-uid="lnk12" id="link_IRule_IRulesResult"><path codeLine="25" d="M257.68,48.5 C269.39,48.5 275.09,48.5 286.8,48.5" fill="none" id="IRule-to-IRulesResult" style="stroke:#181818;stroke-width:1;"/><polygon fill="#181818" points="292.8,48.5,283.8,44.5,287.8,48.5,283.8,52.5,292.8,48.5" style="stroke:#181818;stroke-width:1;"/></g><!--reverse link IRulesResult to BaseRule--><g class="link" data-entity-1="IRulesResult" data-entity-2="BaseRule" data-source-line="26" data-uid="lnk14" id="link_IRulesResult_BaseRule"><path codeLine="26" d="M348.5,96.09 C348.5,120.39 348.5,144.83 348.5,167.43" fill="none" id="IRulesResult-backto-BaseRule" style="stroke:#181818;stroke-width:1;"/><polygon fill="#181818" points="348.5,90.09,344.5,99.09,348.5,95.09,352.5,99.09,348.5,90.09" style="stroke:#181818;stroke-width:1;"/></g><!--link IRule to RulesChain--><g class="link" data-entity-1="IRule" data-entity-2="RulesChain" data-source-line="27" data-uid="lnk16" id="link_IRule_RulesChain"><path codeLine="27" d="M178.6437,87.2636 C170.8237,107.1436 167.2089,116.3214 158.3789,138.7914" fill="none" id="IRule-RulesChain" style="stroke:#181818;stroke-width:1;"/><polygon fill="#181818" points="180.84,81.68,173.8231,88.5911,179.0097,86.333,181.2678,91.5196,180.84,81.68" style="stroke:#181818;stroke-width:1;"/><polygon fill="#181818" points="153.99,149.96,159.9073,145.8387,158.3789,138.7914,152.4616,142.9127,153.99,149.96" style="stroke:#181818;stroke-width:1;"/></g><!--link RulesChain to RulesChain--><g class="link" data-entity-1="RulesChain" data-entity-2="RulesChain" data-source-line="28" data-uid="lnk17" id="link_RulesChain_RulesChain"><path codeLine="28" d="M240.971,174.494 C261.231,177.244 264,184.84 264,200.5 C264,216.16 255.2855,224.563 235.0255,227.313" fill="none" id="RulesChain-RulesChain" style="stroke:#181818;stroke-width:1;"/><polygon fill="#181818" points="229.08,172.88,234.4875,177.6507,240.971,174.494,235.5635,169.7234,229.08,172.88" style="stroke:#181818;stroke-width:1;"/><polygon fill="#181818" points="229.08,228.12,238.5362,230.8731,234.0346,227.4475,237.4602,222.9458,229.08,228.12" style="stroke:#181818;stroke-width:1;"/></g><!--link RulesChain to RulesEvaluator--><g class="link" data-entity-1="RulesChain" data-entity-2="RulesEvaluator" data-source-line="29" data-uid="lnk19" id="link_RulesChain_RulesEvaluator"><path codeLine="29" d="M132.8305,257.2973 C132.2705,276.0073 132.1786,279.4454 131.5986,298.8454" fill="none" id="RulesChain-RulesEvaluator" style="stroke:#181818;stroke-width:1;"/><polygon fill="#181818" points="133.01,251.3,128.7425,260.1763,132.8604,256.2978,136.739,260.4156,133.01,251.3" style="stroke:#181818;stroke-width:1;"/><polygon fill="#181818" points="131.24,310.84,135.4175,304.9622,131.5986,298.8454,127.4211,304.7231,131.24,310.84" style="stroke:#181818;stroke-width:1;"/></g><!--SRC=[VL9BgiCm3Dpx55xs5T83b4UWdom2WPQK7a0OjJ4O1oAvVOjt-2PsqjYXT6VDQEGPMwLbx6wWK9QrCoZAjAOQoHaM1mD4SW-4lYkKYoCT6j0s1ee760VSTaBuQNARJ1terO-8eQ63Bauf95eInHygnzWh9X-VvtrdWik93nbId2eWBcr8ar2L9lwTaLmM9XWXaUOTt8OppksJWRZhn0rsJqruR5SxnRgrifsWK7yJ-LXZ433znrbW_V1NVf15JaPDvnl5_9wRwtdpdu-hu97iUivwvFtpGPZL-jvmbgTByXupY1PSz8xhY4xn7eqMQH5Wb4KDBm00]--></g></svg>