<svg xmlns="http://www.w3.org/2000/svg" xmlns:xlink="http://www.w3.org/1999/xlink" contentStyleType="text/css" data-diagram-type="EBNF" height="140px" preserveAspectRatio="none" style="width:811px;height:140px;background:#FFFFFF;" version="1.1" viewBox="0 0 811 140" width="811px" zoomAndPan="magnify"><defs/><g><text fill="#000000" font-family="sans-serif" font-size="14" font-weight="bold" lengthAdjust="spacing" textLength="85.5791" x="10" y="24.5332">specification</text><line style="stroke:#181818;stroke-width:1.5;" x1="40" x2="40" y1="63.4141" y2="63.4141"/><rect fill="none" height="27.6094" style="stroke:#181818;stroke-width:0.5;" width="84.71" x="40" y="49.6094"/><text fill="#000000" font-family="sans-serif" font-size="14" lengthAdjust="spacing" textLength="74.71" x="45" y="69.1426">/constitution</text><line style="stroke:#181818;stroke-width:1.5;" x1="124.71" x2="144.71" y1="63.4141" y2="63.4141"/><path d="M152.71,55.4141 C152.71,61.4141 154.71,63.4141 160.71,63.4141" fill="none" style="stroke:#181818;stroke-width:1.5;"/><line style="stroke:#181818;stroke-width:1.5;" x1="152.71" x2="152.71" y1="50.6094" y2="55.4141"/><path d="M152.71,50.6094 C152.71,44.6094 154.71,42.6094 160.71,42.6094" fill="none" style="stroke:#181818;stroke-width:1.5;"/><line style="stroke:#181818;stroke-width:1.5;" x1="159.71" x2="751.1572" y1="42.6094" y2="42.6094"/><path d="M512.5783,42.6094 L512.5783,39.6094 L506.5783,42.6094 L512.5783,45.6094 L512.5783,42.6094" fill="#181818"/><path d="M758.1572,55.4141 C758.1572,61.4141 756.1572,63.4141 750.1572,63.4141" fill="none" style="stroke:#181818;stroke-width:1.5;"/><line style="stroke:#181818;stroke-width:1.5;" x1="758.1572" x2="758.1572" y1="50.6094" y2="55.4141"/><path d="M750.1572,42.6094 C756.1572,42.6094 758.1572,44.6094 758.1572,50.6094" fill="none" style="stroke:#181818;stroke-width:1.5;"/><line style="stroke:#181818;stroke-width:1.5;" x1="144.71" x2="159.71" y1="63.4141" y2="63.4141"/><line style="stroke:#181818;stroke-width:1.5;" x1="751.1572" x2="766.1572" y1="63.4141" y2="63.4141"/><line style="stroke:#181818;stroke-width:1.5;" x1="159.71" x2="159.71" y1="63.4141" y2="63.4141"/><rect fill="none" height="27.6094" style="stroke:#181818;stroke-width:0.5;" width="57.4619" x="159.71" y="49.6094"/><text fill="#000000" font-family="sans-serif" font-size="14" lengthAdjust="spacing" textLength="47.4619" x="164.71" y="69.1426">/specify</text><line style="stroke:#181818;stroke-width:1.5;" x1="217.1719" x2="237.1719" y1="63.4141" y2="63.4141"/><line style="stroke:#181818;stroke-width:1.5;" x1="237.1719" x2="365.6201" y1="63.4141" y2="63.4141"/><path d="M286.5512,63.4141 L286.5512,60.4141 L292.5512,63.4141 L286.5512,66.4141 L286.5512,63.4141" fill="#181818"/><path d="M237.1719,63.4141 C246.1719,63.4141 249.1719,72.3164 249.1719,81.3164 C249.1719,90.3164 252.1719,99.2188 261.1719,99.2188" fill="none" style="stroke:#181818;stroke-width:1.5;"/><path d="M341.6201,99.2188 C350.6201,99.2188 353.6201,90.3164 353.6201,81.3164 C353.6201,72.3164 356.6201,63.4141 365.6201,63.4141" fill="none" style="stroke:#181818;stroke-width:1.5;"/><path d="M269.1719,91.2188 C269.1719,97.2188 271.1719,99.2188 277.1719,99.2188" fill="none" style="stroke:#181818;stroke-width:1.5;"/><line style="stroke:#181818;stroke-width:1.5;" x1="269.1719" x2="269.1719" y1="86.4141" y2="91.2188"/><path d="M269.1719,86.4141 C269.1719,80.4141 271.1719,78.4141 277.1719,78.4141" fill="none" style="stroke:#181818;stroke-width:1.5;"/><line style="stroke:#181818;stroke-width:1.5;" x1="276.1719" x2="326.6201" y1="78.4141" y2="78.4141"/><path d="M304.4408,78.4141 L304.4408,75.4141 L298.4408,78.4141 L304.4408,81.4141 L304.4408,78.4141" fill="#181818"/><path d="M333.6201,91.2188 C333.6201,97.2188 331.6201,99.2188 325.6201,99.2188" fill="none" style="stroke:#181818;stroke-width:1.5;"/><line style="stroke:#181818;stroke-width:1.5;" x1="333.6201" x2="333.6201" y1="86.4141" y2="91.2188"/><path d="M325.6201,78.4141 C331.6201,78.4141 333.6201,80.4141 333.6201,86.4141" fill="none" style="stroke:#181818;stroke-width:1.5;"/><line style="stroke:#181818;stroke-width:1.5;" x1="261.1719" x2="276.1719" y1="99.2188" y2="99.2188"/><line style="stroke:#181818;stroke-width:1.5;" x1="326.6201" x2="341.6201" y1="99.2188" y2="99.2188"/><rect fill="none" height="27.6094" style="stroke:#181818;stroke-width:0.5;" width="50.4482" x="276.1719" y="85.4141"/><text fill="#000000" font-family="sans-serif" font-size="14" lengthAdjust="spacing" textLength="40.4482" x="281.1719" y="104.9473">/clarify</text><line style="stroke:#181818;stroke-width:1.5;" x1="365.6201" x2="385.6201" y1="63.4141" y2="63.4141"/><rect fill="none" height="27.6094" style="stroke:#181818;stroke-width:0.5;" width="40.3584" x="385.6201" y="49.6094"/><text fill="#000000" font-family="sans-serif" font-size="14" lengthAdjust="spacing" textLength="30.3584" x="390.6201" y="69.1426">/plan</text><line style="stroke:#181818;stroke-width:1.5;" x1="425.9785" x2="445.9785" y1="63.4141" y2="63.4141"/><rect fill="none" height="27.6094" style="stroke:#181818;stroke-width:0.5;" width="46.5654" x="445.9785" y="49.6094"/><text fill="#000000" font-family="sans-serif" font-size="14" lengthAdjust="spacing" textLength="36.5654" x="450.9785" y="69.1426">/tasks</text><line style="stroke:#181818;stroke-width:1.5;" x1="492.5439" x2="512.5439" y1="63.4141" y2="63.4141"/><line style="stroke:#181818;stroke-width:1.5;" x1="512.5439" x2="652.6885" y1="63.4141" y2="63.4141"/><path d="M566.6018,63.4141 L566.6018,60.4141 L572.6018,63.4141 L566.6018,66.4141 L566.6018,63.4141" fill="#181818"/><path d="M512.5439,63.4141 C521.5439,63.4141 524.5439,72.3164 524.5439,81.3164 C524.5439,90.3164 527.5439,99.2188 536.5439,99.2188" fill="none" style="stroke:#181818;stroke-width:1.5;"/><path d="M628.6885,99.2188 C637.6885,99.2188 640.6885,90.3164 640.6885,81.3164 C640.6885,72.3164 643.6885,63.4141 652.6885,63.4141" fill="none" style="stroke:#181818;stroke-width:1.5;"/><path d="M544.5439,91.2188 C544.5439,97.2188 546.5439,99.2188 552.5439,99.2188" fill="none" style="stroke:#181818;stroke-width:1.5;"/><line style="stroke:#181818;stroke-width:1.5;" x1="544.5439" x2="544.5439" y1="86.4141" y2="91.2188"/><path d="M544.5439,86.4141 C544.5439,80.4141 546.5439,78.4141 552.5439,78.4141" fill="none" style="stroke:#181818;stroke-width:1.5;"/><line style="stroke:#181818;stroke-width:1.5;" x1="551.5439" x2="613.6885" y1="78.4141" y2="78.4141"/><path d="M586.8307,78.4141 L586.8307,75.4141 L580.8307,78.4141 L586.8307,81.4141 L586.8307,78.4141" fill="#181818"/><path d="M620.6885,91.2188 C620.6885,97.2188 618.6885,99.2188 612.6885,99.2188" fill="none" style="stroke:#181818;stroke-width:1.5;"/><line style="stroke:#181818;stroke-width:1.5;" x1="620.6885" x2="620.6885" y1="86.4141" y2="91.2188"/><path d="M612.6885,78.4141 C618.6885,78.4141 620.6885,80.4141 620.6885,86.4141" fill="none" style="stroke:#181818;stroke-width:1.5;"/><line style="stroke:#181818;stroke-width:1.5;" x1="536.5439" x2="551.5439" y1="99.2188" y2="99.2188"/><line style="stroke:#181818;stroke-width:1.5;" x1="613.6885" x2="628.6885" y1="99.2188" y2="99.2188"/><rect fill="none" height="27.6094" style="stroke:#181818;stroke-width:0.5;" width="62.1445" x="551.5439" y="85.4141"/><text fill="#000000" font-family="sans-serif" font-size="14" lengthAdjust="spacing" textLength="52.1445" x="556.5439" y="104.9473">/analyse</text><line style="stroke:#181818;stroke-width:1.5;" x1="652.6885" x2="672.6885" y1="63.4141" y2="63.4141"/><rect fill="none" height="27.6094" style="stroke:#181818;stroke-width:0.5;" width="78.4688" x="672.6885" y="49.6094"/><text fill="#000000" font-family="sans-serif" font-size="14" lengthAdjust="spacing" textLength="68.4688" x="677.6885" y="69.1426">/implement</text><ellipse cx="14" cy="63.4141" fill="none" rx="4" ry="4" style="stroke:#181818;stroke-width:2;"/><ellipse cx="796.1572" cy="63.4141" fill="#181818" rx="4" ry="4" style="stroke:#181818;stroke-width:1;"/><line style="stroke:#181818;stroke-width:1.5;" x1="18" x2="40" y1="63.4141" y2="63.4141"/><line style="stroke:#181818;stroke-width:1.5;" x1="766.1572" x2="792.1572" y1="63.4141" y2="63.4141"/><path d="M777.1572,63.4141 L777.1572,60.4141 L783.1572,63.4141 L777.1572,66.4141 L777.1572,63.4141" fill="#181818"/><!--SRC=[DOvTQuCm58RlyoiENYdOhhhfYcDGx4f7KIYpwtsgKS8qaUGeoF2_Br5sTzwFm_CUD5A5x25gGdJFIbxpaYAN0jx1UIgbqCXni8O3_g-nrj9abSbRggoOVPFqBRKbSo7LFzhnmJIeeEsacJCl0U_wbdLCe0FpvesG0nFLohwQP_pECnYPqXOVRCDT66rVtTo8WlMmsqCG9r6SFEyXBMvWOu-uvsi6MWwgP51nZOe_bhKUkT2HmjSWa7Si0QlSM-v1SVetuIH6hgImUyZbdgyb-9HOz1ANSlooIJaQl3Apu9wJ3rRJeKNpMigAYoQ1On-4KKWoAfg1DeR413bAGr1J0kVq3m00]--></g></svg>