<svg xmlns="http://www.w3.org/2000/svg" xmlns:xlink="http://www.w3.org/1999/xlink" contentStyleType="text/css" data-diagram-type="CLASS" height="261px" preserveAspectRatio="none" style="width:464px;height:261px;background:#FFFFFF;" version="1.1" viewBox="0 0 464 261" width="464px" zoomAndPan="magnify"><title>Mediator Pattern</title><defs/><g><g class="title" data-source-line="5"><text fill="#000000" font-family="sans-serif" font-size="14" font-weight="bold" lengthAdjust="spacing" textLength="110.4619" x="169.9722" y="24.5332">Mediator Pattern</text></g><!--class mediator--><g class="entity" data-entity="mediator" data-source-line="8" data-uid="ent0002" id="entity_mediator"><rect fill="#F1F1F1" height="65.6094" rx="2.5" ry="2.5" style="stroke:#181818;stroke-width:0.5;" width="86.4688" x="22" y="45.6094"/><ellipse cx="37" cy="61.6094" fill="#ADD1B2" rx="11" ry="11" style="stroke:#181818;stroke-width:1;"/><path d="M39.7656,57.4844 Q39.9219,57.2656 40.1094,57.1563 Q40.2969,57.0469 40.5156,57.0469 Q40.8906,57.0469 41.125,57.3047 Q41.3594,57.5625 41.3594,58.1719 L41.3594,59.625 Q41.3594,60.2344 41.125,60.5 Q40.8906,60.7656 40.5156,60.7656 Q40.1719,60.7656 39.9688,60.5625 Q39.7656,60.375 39.6563,59.8594 Q39.6094,59.5 39.4219,59.3125 Q39.0938,58.9375 38.4844,58.7188 Q37.875,58.5 37.25,58.5 Q36.4844,58.5 35.8516,58.8281 Q35.2188,59.1563 34.7266,59.9063 Q34.2344,60.6563 34.2344,61.6875 L34.2344,62.7813 Q34.2344,64.0156 35.125,64.8359 Q36.0156,65.6563 37.6094,65.6563 Q38.5469,65.6563 39.2031,65.4063 Q39.5938,65.25 40.0156,64.8125 Q40.2813,64.5469 40.4297,64.4688 Q40.5781,64.3906 40.7813,64.3906 Q41.1094,64.3906 41.3672,64.6484 Q41.625,64.9063 41.625,65.25 Q41.625,65.5938 41.2813,66 Q40.7813,66.5781 39.9844,66.9063 Q38.9063,67.3594 37.6094,67.3594 Q36.0938,67.3594 34.8906,66.7344 Q33.9063,66.2344 33.2188,65.1641 Q32.5313,64.0938 32.5313,62.8125 L32.5313,61.6563 Q32.5313,60.3281 33.1484,59.1797 Q33.7656,58.0313 34.8594,57.4141 Q35.9531,56.7969 37.1875,56.7969 Q37.9219,56.7969 38.5703,56.9609 Q39.2188,57.125 39.7656,57.4844 Z " fill="#000000"/><text fill="#000000" font-family="sans-serif" font-size="14" lengthAdjust="spacing" textLength="54.4688" x="51" y="67.3379">mediator</text><line style="stroke:#181818;stroke-width:0.5;" x1="23" x2="107.4688" y1="77.6094" y2="77.6094"/><line style="stroke:#181818;stroke-width:0.5;" x1="23" x2="107.4688" y1="85.6094" y2="85.6094"/><text fill="#000000" font-family="sans-serif" font-size="14" lengthAdjust="spacing" textLength="59.1309" x="28" y="104.1426">mediate()</text></g><!--class concMediator--><g class="entity" data-entity="concMediator" data-source-line="9" data-uid="ent0003" id="entity_concMediator"><rect fill="#F1F1F1" height="65.6094" rx="2.5" ry="2.5" style="stroke:#181818;stroke-width:0.5;" width="116.041" x="7" y="180.1094"/><ellipse cx="22" cy="196.1094" fill="#ADD1B2" rx="11" ry="11" style="stroke:#181818;stroke-width:1;"/><path d="M24.7656,191.9844 Q24.9219,191.7656 25.1094,191.6563 Q25.2969,191.5469 25.5156,191.5469 Q25.8906,191.5469 26.125,191.8047 Q26.3594,192.0625 26.3594,192.6719 L26.3594,194.125 Q26.3594,194.7344 26.125,195 Q25.8906,195.2656 25.5156,195.2656 Q25.1719,195.2656 24.9688,195.0625 Q24.7656,194.875 24.6563,194.3594 Q24.6094,194 24.4219,193.8125 Q24.0938,193.4375 23.4844,193.2188 Q22.875,193 22.25,193 Q21.4844,193 20.8516,193.3281 Q20.2188,193.6563 19.7266,194.4063 Q19.2344,195.1563 19.2344,196.1875 L19.2344,197.2813 Q19.2344,198.5156 20.125,199.3359 Q21.0156,200.1563 22.6094,200.1563 Q23.5469,200.1563 24.2031,199.9063 Q24.5938,199.75 25.0156,199.3125 Q25.2813,199.0469 25.4297,198.9688 Q25.5781,198.8906 25.7813,198.8906 Q26.1094,198.8906 26.3672,199.1484 Q26.625,199.4063 26.625,199.75 Q26.625,200.0938 26.2813,200.5 Q25.7813,201.0781 24.9844,201.4063 Q23.9063,201.8594 22.6094,201.8594 Q21.0938,201.8594 19.8906,201.2344 Q18.9063,200.7344 18.2188,199.6641 Q17.5313,198.5938 17.5313,197.3125 L17.5313,196.1563 Q17.5313,194.8281 18.1484,193.6797 Q18.7656,192.5313 19.8594,191.9141 Q20.9531,191.2969 22.1875,191.2969 Q22.9219,191.2969 23.5703,191.4609 Q24.2188,191.625 24.7656,191.9844 Z " fill="#000000"/><text fill="#000000" font-family="sans-serif" font-size="14" lengthAdjust="spacing" textLength="84.041" x="36" y="201.8379">concMediator</text><line style="stroke:#181818;stroke-width:0.5;" x1="8" x2="122.041" y1="212.1094" y2="212.1094"/><line style="stroke:#181818;stroke-width:0.5;" x1="8" x2="122.041" y1="220.1094" y2="220.1094"/><text fill="#000000" font-family="sans-serif" font-size="14" lengthAdjust="spacing" textLength="59.1309" x="13" y="238.6426">mediate()</text></g><!--class concColleague1--><g class="entity" data-entity="concColleague1" data-source-line="10" data-uid="ent0004" id="entity_concColleague1"><rect fill="#F1F1F1" height="83.2188" rx="2.5" ry="2.5" style="stroke:#181818;stroke-width:0.5;" width="132.4063" x="158" y="171.6094"/><ellipse cx="173" cy="187.6094" fill="#ADD1B2" rx="11" ry="11" style="stroke:#181818;stroke-width:1;"/><path d="M175.7656,183.4844 Q175.9219,183.2656 176.1094,183.1563 Q176.2969,183.0469 176.5156,183.0469 Q176.8906,183.0469 177.125,183.3047 Q177.3594,183.5625 177.3594,184.1719 L177.3594,185.625 Q177.3594,186.2344 177.125,186.5 Q176.8906,186.7656 176.5156,186.7656 Q176.1719,186.7656 175.9688,186.5625 Q175.7656,186.375 175.6563,185.8594 Q175.6094,185.5 175.4219,185.3125 Q175.0938,184.9375 174.4844,184.7188 Q173.875,184.5 173.25,184.5 Q172.4844,184.5 171.8516,184.8281 Q171.2188,185.1563 170.7266,185.9063 Q170.2344,186.6563 170.2344,187.6875 L170.2344,188.7813 Q170.2344,190.0156 171.125,190.8359 Q172.0156,191.6563 173.6094,191.6563 Q174.5469,191.6563 175.2031,191.4063 Q175.5938,191.25 176.0156,190.8125 Q176.2813,190.5469 176.4297,190.4688 Q176.5781,190.3906 176.7813,190.3906 Q177.1094,190.3906 177.3672,190.6484 Q177.625,190.9063 177.625,191.25 Q177.625,191.5938 177.2813,192 Q176.7813,192.5781 175.9844,192.9063 Q174.9063,193.3594 173.6094,193.3594 Q172.0938,193.3594 170.8906,192.7344 Q169.9063,192.2344 169.2188,191.1641 Q168.5313,190.0938 168.5313,188.8125 L168.5313,187.6563 Q168.5313,186.3281 169.1484,185.1797 Q169.7656,184.0313 170.8594,183.4141 Q171.9531,182.7969 173.1875,182.7969 Q173.9219,182.7969 174.5703,182.9609 Q175.2188,183.125 175.7656,183.4844 Z " fill="#000000"/><text fill="#000000" font-family="sans-serif" font-size="14" lengthAdjust="spacing" textLength="100.4063" x="187" y="193.3379">concColleague1</text><line style="stroke:#181818;stroke-width:0.5;" x1="159" x2="289.4063" y1="203.6094" y2="203.6094"/><line style="stroke:#181818;stroke-width:0.5;" x1="159" x2="289.4063" y1="211.6094" y2="211.6094"/><text fill="#000000" font-family="sans-serif" font-size="14" lengthAdjust="spacing" textLength="61.4756" x="164" y="230.1426">getState()</text><text fill="#000000" font-family="sans-serif" font-size="14" lengthAdjust="spacing" textLength="54.4688" x="164" y="247.752">action1()</text></g><!--class concColleague2--><g class="entity" data-entity="concColleague2" data-source-line="12" data-uid="ent0005" id="entity_concColleague2"><rect fill="#F1F1F1" height="83.2188" rx="2.5" ry="2.5" style="stroke:#181818;stroke-width:0.5;" width="132.4063" x="325" y="171.6094"/><ellipse cx="340" cy="187.6094" fill="#ADD1B2" rx="11" ry="11" style="stroke:#181818;stroke-width:1;"/><path d="M342.7656,183.4844 Q342.9219,183.2656 343.1094,183.1563 Q343.2969,183.0469 343.5156,183.0469 Q343.8906,183.0469 344.125,183.3047 Q344.3594,183.5625 344.3594,184.1719 L344.3594,185.625 Q344.3594,186.2344 344.125,186.5 Q343.8906,186.7656 343.5156,186.7656 Q343.1719,186.7656 342.9688,186.5625 Q342.7656,186.375 342.6563,185.8594 Q342.6094,185.5 342.4219,185.3125 Q342.0938,184.9375 341.4844,184.7188 Q340.875,184.5 340.25,184.5 Q339.4844,184.5 338.8516,184.8281 Q338.2188,185.1563 337.7266,185.9063 Q337.2344,186.6563 337.2344,187.6875 L337.2344,188.7813 Q337.2344,190.0156 338.125,190.8359 Q339.0156,191.6563 340.6094,191.6563 Q341.5469,191.6563 342.2031,191.4063 Q342.5938,191.25 343.0156,190.8125 Q343.2813,190.5469 343.4297,190.4688 Q343.5781,190.3906 343.7813,190.3906 Q344.1094,190.3906 344.3672,190.6484 Q344.625,190.9063 344.625,191.25 Q344.625,191.5938 344.2813,192 Q343.7813,192.5781 342.9844,192.9063 Q341.9063,193.3594 340.6094,193.3594 Q339.0938,193.3594 337.8906,192.7344 Q336.9063,192.2344 336.2188,191.1641 Q335.5313,190.0938 335.5313,188.8125 L335.5313,187.6563 Q335.5313,186.3281 336.1484,185.1797 Q336.7656,184.0313 337.8594,183.4141 Q338.9531,182.7969 340.1875,182.7969 Q340.9219,182.7969 341.5703,182.9609 Q342.2188,183.125 342.7656,183.4844 Z " fill="#000000"/><text fill="#000000" font-family="sans-serif" font-size="14" lengthAdjust="spacing" textLength="100.4063" x="354" y="193.3379">concColleague2</text><line style="stroke:#181818;stroke-width:0.5;" x1="326" x2="456.4063" y1="203.6094" y2="203.6094"/><line style="stroke:#181818;stroke-width:0.5;" x1="326" x2="456.4063" y1="211.6094" y2="211.6094"/><text fill="#000000" font-family="sans-serif" font-size="14" lengthAdjust="spacing" textLength="61.4756" x="331" y="230.1426">getState()</text><text fill="#000000" font-family="sans-serif" font-size="14" lengthAdjust="spacing" textLength="54.4688" x="331" y="247.752">action2()</text></g><!--class colleague--><g class="entity" data-entity="colleague" data-source-line="16" data-uid="ent0006" id="entity_colleague"><rect fill="#F1F1F1" height="48" rx="2.5" ry="2.5" style="stroke:#181818;stroke-width:0.5;" width="91.9375" x="178" y="54.6094"/><ellipse cx="193" cy="70.6094" fill="#ADD1B2" rx="11" ry="11" style="stroke:#181818;stroke-width:1;"/><path d="M195.7656,66.4844 Q195.9219,66.2656 196.1094,66.1563 Q196.2969,66.0469 196.5156,66.0469 Q196.8906,66.0469 197.125,66.3047 Q197.3594,66.5625 197.3594,67.1719 L197.3594,68.625 Q197.3594,69.2344 197.125,69.5 Q196.8906,69.7656 196.5156,69.7656 Q196.1719,69.7656 195.9688,69.5625 Q195.7656,69.375 195.6563,68.8594 Q195.6094,68.5 195.4219,68.3125 Q195.0938,67.9375 194.4844,67.7188 Q193.875,67.5 193.25,67.5 Q192.4844,67.5 191.8516,67.8281 Q191.2188,68.1563 190.7266,68.9063 Q190.2344,69.6563 190.2344,70.6875 L190.2344,71.7813 Q190.2344,73.0156 191.125,73.8359 Q192.0156,74.6563 193.6094,74.6563 Q194.5469,74.6563 195.2031,74.4063 Q195.5938,74.25 196.0156,73.8125 Q196.2813,73.5469 196.4297,73.4688 Q196.5781,73.3906 196.7813,73.3906 Q197.1094,73.3906 197.3672,73.6484 Q197.625,73.9063 197.625,74.25 Q197.625,74.5938 197.2813,75 Q196.7813,75.5781 195.9844,75.9063 Q194.9063,76.3594 193.6094,76.3594 Q192.0938,76.3594 190.8906,75.7344 Q189.9063,75.2344 189.2188,74.1641 Q188.5313,73.0938 188.5313,71.8125 L188.5313,70.6563 Q188.5313,69.3281 189.1484,68.1797 Q189.7656,67.0313 190.8594,66.4141 Q191.9531,65.7969 193.1875,65.7969 Q193.9219,65.7969 194.5703,65.9609 Q195.2188,66.125 195.7656,66.4844 Z " fill="#000000"/><text fill="#000000" font-family="sans-serif" font-size="14" lengthAdjust="spacing" textLength="59.9375" x="207" y="76.3379">colleague</text><line style="stroke:#181818;stroke-width:0.5;" x1="179" x2="268.9375" y1="86.6094" y2="86.6094"/><line style="stroke:#181818;stroke-width:0.5;" x1="179" x2="268.9375" y1="94.6094" y2="94.6094"/></g><!--reverse link mediator to colleague--><g class="link" data-entity-1="mediator" data-entity-2="colleague" data-source-line="16" data-uid="lnk7" id="link_mediator_colleague"><path codeLine="16" d="M114.03,78.6094 C135.64,78.6094 155.85,78.6094 177.87,78.6094" fill="none" id="mediator-backto-colleague" style="stroke:#181818;stroke-width:1;"/><polygon fill="#181818" points="108.03,78.6094,117.03,82.6094,113.03,78.6094,117.03,74.6094,108.03,78.6094" style="stroke:#181818;stroke-width:1;"/><text fill="#000000" font-family="sans-serif" font-size="13" lengthAdjust="spacing" textLength="50.5781" x="117.95" y="93.1045">mediator</text></g><!--link mediator to concMediator--><!--link concMediator to mediator--><g class="link" data-entity-1="concMediator" data-entity-2="mediator" data-source-line="23" data-uid="lnk12" id="link_concMediator_mediator"><path codeLine="23" d="M79.33,179.8594 C79.33,159.1694 79.33,150.6494 79.33,129.9394" fill="none" id="concMediator-to-mediator" style="stroke:#181818;stroke-width:1;"/><polygon fill="none" points="79.33,111.9394,73.33,129.9394,85.33,129.9394,79.33,111.9394" style="stroke:#181818;stroke-width:1;"/></g><!--link colleague to concColleague1--><!--link concColleague1 to colleague--><g class="link" data-entity-1="concColleague1" data-entity-2="colleague" data-source-line="24" data-uid="lnk13" id="link_concColleague1_colleague"><path codeLine="24" d="M239.33,171.2894 C239.33,148.7694 239.33,139.7894 239.33,120.7694" fill="none" id="concColleague1-to-colleague" style="stroke:#181818;stroke-width:1;"/><polygon fill="none" points="239.33,102.7694,233.33,120.7694,245.33,120.7694,239.33,102.7694" style="stroke:#181818;stroke-width:1;"/></g><!--link colleague to concColleague2--><!--link concColleague2 to colleague--><g class="link" data-entity-1="concColleague2" data-entity-2="colleague" data-source-line="25" data-uid="lnk14" id="link_concColleague2_colleague"><path codeLine="25" d="M391,171.3394 C391,134.4894 391,86.6094 391,86.6094 C391,86.6094 337.51,86.6094 288.08,86.6094" fill="none" id="concColleague2-to-colleague" style="stroke:#181818;stroke-width:1;"/><polygon fill="none" points="270.08,86.6094,288.08,92.6094,288.08,80.6094,270.08,86.6094" style="stroke:#181818;stroke-width:1;"/></g><!--link concColleague1 to concColleague2--><!--link concMediator to concColleague1--><g class="link" data-entity-1="concMediator" data-entity-2="concColleague1" data-source-line="26" data-uid="lnk15" id="link_concMediator_concColleague1"><path codeLine="26" d="M123.3,213.6094 C134.56,213.6094 140.43,213.6094 151.91,213.6094" fill="none" id="concMediator-to-concColleague1" style="stroke:#181818;stroke-width:1;"/><polygon fill="#181818" points="157.91,213.6094,148.91,209.6094,152.91,213.6094,148.91,217.6094,157.91,213.6094" style="stroke:#181818;stroke-width:1;"/></g><!--link concMediator to concColleague2--><g class="link" data-entity-1="concMediator" data-entity-2="concColleague2" data-source-line="27" data-uid="lnk16" id="link_concMediator_concColleague2"><path codeLine="27" d="M115.5,179.8694 C115.5,161.1994 115.5,141.6094 115.5,141.6094 C115.5,141.6094 358,141.6094 358,141.6094 C358,141.6094 358,149.7894 358,165.5194" fill="none" id="concMediator-to-concColleague2" style="stroke:#181818;stroke-width:1;"/><polygon fill="#181818" points="358,171.5194,362,162.5194,358,166.5194,354,162.5194,358,171.5194" style="stroke:#181818;stroke-width:1;"/></g><!--SRC=[ZP2n2i8m48RtFCLjwf31Z29Td0MnepY4z6Y3CId9EHHyU5EaZQQjk2Ly_nt_T-6cRIkzl8FH5gbh4Lfdklx3mfGvJurZZ3GPX2DMMfBpS994w2rZAr16Xe21tGUsW_SJrnkcd5N79N1mng2i7xYDg4OgQO59HThPROx4Zp4nZec8OiqI2OBoY3Rg1jsJL7dFGGsJOqtdKu1V6brLQA-yW4ydbiRoI3Bu9oHowp4v2KQPCnhP6uH6jzytvlnPfFxvpXwEPVA3pT2qTiRf1uubNm00]--></g></svg>