<svg xmlns="http://www.w3.org/2000/svg" xmlns:xlink="http://www.w3.org/1999/xlink" contentStyleType="text/css" data-diagram-type="SEQUENCE" height="215px" preserveAspectRatio="none" style="width:258px;height:215px;background:#FFFFFF;" version="1.1" viewBox="0 0 258 215" width="258px" zoomAndPan="magnify"><defs/><g><g><title>Alice</title><rect fill="#000000" fill-opacity="0.00000" height="141.4063" width="8" x="23.1724" y="37.6094"/><line style="stroke:#181818;stroke-width:0.5;stroke-dasharray:5,5;" x1="27" x2="27" y1="37.6094" y2="179.0156"/></g><g><title>Bob</title><rect fill="#000000" fill-opacity="0.00000" height="141.4063" width="8" x="229.2993" y="37.6094"/><line style="stroke:#181818;stroke-width:0.5;stroke-dasharray:5,5;" x1="232.8442" x2="232.8442" y1="37.6094" y2="179.0156"/></g><g class="participant participant-head" data-participant="Alice"><rect fill="#E2E2F0" height="31.6094" rx="2.5" ry="2.5" style="stroke:#181818;stroke-width:0.5;" width="44.3447" x="5" y="5"/><text fill="#000000" font-family="sans-serif" font-size="14" lengthAdjust="spacing" textLength="30.3447" x="12" y="26.5332">Alice</text></g><g class="participant participant-tail" data-participant="Alice"><rect fill="#E2E2F0" height="31.6094" rx="2.5" ry="2.5" style="stroke:#181818;stroke-width:0.5;" width="44.3447" x="5" y="178.0156"/><text fill="#000000" font-family="sans-serif" font-size="14" lengthAdjust="spacing" textLength="30.3447" x="12" y="199.5488">Alice</text></g><g class="participant participant-head" data-participant="Bob"><rect fill="#E2E2F0" height="31.6094" rx="2.5" ry="2.5" style="stroke:#181818;stroke-width:0.5;" width="38.9102" x="213.8442" y="5"/><text fill="#000000" font-family="sans-serif" font-size="14" lengthAdjust="spacing" textLength="24.9102" x="220.8442" y="26.5332">Bob</text></g><g class="participant participant-tail" data-participant="Bob"><rect fill="#E2E2F0" height="31.6094" rx="2.5" ry="2.5" style="stroke:#181818;stroke-width:0.5;" width="38.9102" x="213.8442" y="178.0156"/><text fill="#000000" font-family="sans-serif" font-size="14" lengthAdjust="spacing" textLength="24.9102" x="220.8442" y="199.5488">Bob</text></g><g class="message" data-participant-1="Alice" data-participant-2="Bob"><polygon fill="#181818" points="221.2993,65.9609,231.2993,69.9609,221.2993,73.9609,225.2993,69.9609" style="stroke:#181818;stroke-width:1;"/><line style="stroke:#181818;stroke-width:1;" x1="27.1724" x2="227.2993" y1="69.9609" y2="69.9609"/><text fill="#000000" font-family="sans-serif" font-size="13" lengthAdjust="spacing" textLength="134.4243" x="34.1724" y="65.1045">Authentication Request</text></g><g class="message" data-participant-1="Bob" data-participant-2="Alice"><polygon fill="#181818" points="38.1724,96.3125,28.1724,100.3125,38.1724,104.3125,34.1724,100.3125" style="stroke:#181818;stroke-width:1;"/><line style="stroke:#181818;stroke-width:1;stroke-dasharray:2,2;" x1="32.1724" x2="232.2993" y1="100.3125" y2="100.3125"/><text fill="#000000" font-family="sans-serif" font-size="13" lengthAdjust="spacing" textLength="144.5425" x="44.1724" y="95.4561">Authentication Response</text></g><g class="message" data-participant-1="Alice" data-participant-2="Bob"><polygon fill="#181818" points="221.2993,126.6641,231.2993,130.6641,221.2993,134.6641,225.2993,130.6641" style="stroke:#181818;stroke-width:1;"/><line style="stroke:#181818;stroke-width:1;" x1="27.1724" x2="227.2993" y1="130.6641" y2="130.6641"/><text fill="#000000" font-family="sans-serif" font-size="13" lengthAdjust="spacing" textLength="182.127" x="34.1724" y="125.8076">Another authentication Request</text></g><g class="message" data-participant-1="Bob" data-participant-2="Alice"><polygon fill="#181818" points="38.1724,157.0156,28.1724,161.0156,38.1724,165.0156,34.1724,161.0156" style="stroke:#181818;stroke-width:1;"/><line style="stroke:#181818;stroke-width:1;stroke-dasharray:2,2;" x1="32.1724" x2="232.2993" y1="161.0156" y2="161.0156"/><text fill="#000000" font-family="sans-serif" font-size="13" lengthAdjust="spacing" textLength="107.6816" x="44.1724" y="156.1592">Another Response</text></g><!--SRC=[Syp9J4vLqBLJSCfFib9mB2t9ICqhoKnEBCdCprC8IYqiJIqkuGBAAUW2rJY256DHLLoGdrUSokM8QbPUFb1PaK8YSMP2LSCC0m00]--></g></svg>