<svg xmlns="http://www.w3.org/2000/svg" xmlns:xlink="http://www.w3.org/1999/xlink" contentStyleType="text/css" data-diagram-type="CLASS" height="459px" preserveAspectRatio="none" style="width:1404px;height:459px;background:#FFFFFF;" version="1.1" viewBox="0 0 1404 459" width="1404px" zoomAndPan="magnify"><defs/><g><!--class HelloWorldCommandValidator--><g class="entity" data-entity="HelloWorldCommandValidator" data-source-line="5" data-uid="ent0002" id="entity_HelloWorldCommandValidator"><rect fill="#F1F1F1" height="65.6094" rx="2.5" ry="2.5" style="stroke:#181818;stroke-width:0.5;" width="223.6201" x="48.7777" y="126.5"/><ellipse cx="65.2736" cy="142.5" fill="#ADD1B2" rx="11" ry="11" style="stroke:#181818;stroke-width:1;"/><path d="M68.0392,138.375 Q68.1955,138.1563 68.383,138.0469 Q68.5705,137.9375 68.7892,137.9375 Q69.1642,137.9375 69.3986,138.1953 Q69.633,138.4531 69.633,139.0625 L69.633,140.5156 Q69.633,141.125 69.3986,141.3906 Q69.1642,141.6563 68.7892,141.6563 Q68.4455,141.6563 68.2423,141.4531 Q68.0392,141.2656 67.9298,140.75 Q67.883,140.3906 67.6955,140.2031 Q67.3673,139.8281 66.758,139.6094 Q66.1486,139.3906 65.5236,139.3906 Q64.758,139.3906 64.1251,139.7188 Q63.4923,140.0469 63.0001,140.7969 Q62.508,141.5469 62.508,142.5781 L62.508,143.6719 Q62.508,144.9063 63.3986,145.7266 Q64.2892,146.5469 65.883,146.5469 Q66.8205,146.5469 67.4767,146.2969 Q67.8673,146.1406 68.2892,145.7031 Q68.5548,145.4375 68.7033,145.3594 Q68.8517,145.2813 69.0548,145.2813 Q69.383,145.2813 69.6408,145.5391 Q69.8986,145.7969 69.8986,146.1406 Q69.8986,146.4844 69.5548,146.8906 Q69.0548,147.4688 68.258,147.7969 Q67.1798,148.25 65.883,148.25 Q64.3673,148.25 63.1642,147.625 Q62.1798,147.125 61.4923,146.0547 Q60.8048,144.9844 60.8048,143.7031 L60.8048,142.5469 Q60.8048,141.2188 61.422,140.0703 Q62.0392,138.9219 63.133,138.3047 Q64.2267,137.6875 65.4611,137.6875 Q66.1955,137.6875 66.8439,137.8516 Q67.4923,138.0156 68.0392,138.375 Z " fill="#000000"/><text fill="#000000" font-family="sans-serif" font-size="14" lengthAdjust="spacing" textLength="188.2959" x="79.606" y="148.2285">HelloWorldCommandValidator</text><line style="stroke:#181818;stroke-width:0.5;" x1="49.7777" x2="271.3978" y1="158.5" y2="158.5"/><line style="stroke:#181818;stroke-width:0.5;" x1="49.7777" x2="271.3978" y1="166.5" y2="166.5"/><ellipse cx="59.7777" cy="180.8047" fill="#84BE84" rx="3" ry="3" style="stroke:#038048;stroke-width:1;"/><text fill="#000000" font-family="sans-serif" font-size="14" lengthAdjust="spacing" textLength="197.6201" x="68.7777" y="185.0332">HelloWorldCommandValidator()</text></g><!--class AbstractValidator`1--><g class="entity" data-entity="AbstractValidator.1" data-source-line="8" data-uid="ent0003" id="entity_AbstractValidator.1"><rect fill="#F1F1F1" height="48" rx="2.5" ry="2.5" style="stroke:#181818;stroke-width:0.5;" width="162.3848" x="79.7777" y="10"/><ellipse cx="94.7777" cy="26" fill="#ADD1B2" rx="11" ry="11" style="stroke:#181818;stroke-width:1;"/><path d="M97.5433,21.875 Q97.6996,21.6563 97.8871,21.5469 Q98.0746,21.4375 98.2933,21.4375 Q98.6683,21.4375 98.9027,21.6953 Q99.1371,21.9531 99.1371,22.5625 L99.1371,24.0156 Q99.1371,24.625 98.9027,24.8906 Q98.6683,25.1563 98.2933,25.1563 Q97.9496,25.1563 97.7464,24.9531 Q97.5433,24.7656 97.4339,24.25 Q97.3871,23.8906 97.1996,23.7031 Q96.8714,23.3281 96.2621,23.1094 Q95.6527,22.8906 95.0277,22.8906 Q94.2621,22.8906 93.6293,23.2188 Q92.9964,23.5469 92.5043,24.2969 Q92.0121,25.0469 92.0121,26.0781 L92.0121,27.1719 Q92.0121,28.4063 92.9027,29.2266 Q93.7933,30.0469 95.3871,30.0469 Q96.3246,30.0469 96.9808,29.7969 Q97.3714,29.6406 97.7933,29.2031 Q98.0589,28.9375 98.2074,28.8594 Q98.3558,28.7813 98.5589,28.7813 Q98.8871,28.7813 99.1449,29.0391 Q99.4027,29.2969 99.4027,29.6406 Q99.4027,29.9844 99.0589,30.3906 Q98.5589,30.9688 97.7621,31.2969 Q96.6839,31.75 95.3871,31.75 Q93.8714,31.75 92.6683,31.125 Q91.6839,30.625 90.9964,29.5547 Q90.3089,28.4844 90.3089,27.2031 L90.3089,26.0469 Q90.3089,24.7188 90.9261,23.5703 Q91.5433,22.4219 92.6371,21.8047 Q93.7308,21.1875 94.9652,21.1875 Q95.6996,21.1875 96.348,21.3516 Q96.9964,21.5156 97.5433,21.875 Z " fill="#000000"/><text fill="#000000" font-family="sans-serif" font-size="14" lengthAdjust="spacing" textLength="119.0547" x="108.7777" y="31.7285">AbstractValidator`1</text><rect fill="#FFFFFF" height="17.0938" style="stroke:#181818;stroke-width:1;stroke-dasharray:2,2;" width="9.3301" x="235.8324" y="7"/><text fill="#000000" font-family="sans-serif" font-size="12" font-style="italic" lengthAdjust="spacing" textLength="7.3301" x="236.8324" y="20.457">T</text><line style="stroke:#181818;stroke-width:0.5;" x1="80.7777" x2="241.1625" y1="42" y2="42"/><line style="stroke:#181818;stroke-width:0.5;" x1="80.7777" x2="241.1625" y1="50" y2="50"/></g><!--class HelloWorldCommand--><g class="entity" data-entity="HelloWorldCommand" data-source-line="12" data-uid="ent0005" id="entity_HelloWorldCommand"><rect fill="#F1F1F1" height="65.6094" rx="2.5" ry="2.5" style="stroke:#181818;stroke-width:0.5;" width="186.3096" x="307.7777" y="126.5"/><ellipse cx="332.3485" cy="142.5" fill="#ADD1B2" rx="11" ry="11" style="stroke:#181818;stroke-width:1;"/><path d="M335.1142,138.375 Q335.2704,138.1563 335.4579,138.0469 Q335.6454,137.9375 335.8642,137.9375 Q336.2392,137.9375 336.4735,138.1953 Q336.7079,138.4531 336.7079,139.0625 L336.7079,140.5156 Q336.7079,141.125 336.4735,141.3906 Q336.2392,141.6563 335.8642,141.6563 Q335.5204,141.6563 335.3173,141.4531 Q335.1142,141.2656 335.0048,140.75 Q334.9579,140.3906 334.7704,140.2031 Q334.4423,139.8281 333.8329,139.6094 Q333.2235,139.3906 332.5985,139.3906 Q331.8329,139.3906 331.2001,139.7188 Q330.5673,140.0469 330.0751,140.7969 Q329.5829,141.5469 329.5829,142.5781 L329.5829,143.6719 Q329.5829,144.9063 330.4735,145.7266 Q331.3642,146.5469 332.9579,146.5469 Q333.8954,146.5469 334.5517,146.2969 Q334.9423,146.1406 335.3642,145.7031 Q335.6298,145.4375 335.7782,145.3594 Q335.9267,145.2813 336.1298,145.2813 Q336.4579,145.2813 336.7157,145.5391 Q336.9735,145.7969 336.9735,146.1406 Q336.9735,146.4844 336.6298,146.8906 Q336.1298,147.4688 335.3329,147.7969 Q334.2548,148.25 332.9579,148.25 Q331.4423,148.25 330.2392,147.625 Q329.2548,147.125 328.5673,146.0547 Q327.8798,144.9844 327.8798,143.7031 L327.8798,142.5469 Q327.8798,141.2188 328.497,140.0703 Q329.1142,138.9219 330.2079,138.3047 Q331.3017,137.6875 332.536,137.6875 Q333.2704,137.6875 333.9189,137.8516 Q334.5673,138.0156 335.1142,138.375 Z " fill="#000000"/><text fill="#000000" font-family="sans-serif" font-size="14" lengthAdjust="spacing" textLength="133.041" x="348.4754" y="148.2285">HelloWorldCommand</text><line style="stroke:#181818;stroke-width:0.5;" x1="308.7777" x2="493.0873" y1="158.5" y2="158.5"/><ellipse cx="318.7777" cy="172.8047" fill="none" rx="3" ry="3" style="stroke:#038048;stroke-width:1;"/><text fill="#000000" font-family="sans-serif" font-size="14" lengthAdjust="spacing" textLength="160.3096" x="327.7777" y="177.0332">Name : string &#171;get&#187; &#171;set&#187;</text><line style="stroke:#181818;stroke-width:0.5;" x1="308.7777" x2="493.0873" y1="184.1094" y2="184.1094"/></g><!--class ICommand`1--><g class="entity" data-entity="ICommand.1" data-source-line="15" data-uid="ent0006" id="entity_ICommand.1"><rect fill="#F1F1F1" height="48" rx="2.5" ry="2.5" style="stroke:#181818;stroke-width:0.5;" width="124.2471" x="390.7777" y="10"/><ellipse cx="405.7777" cy="26" fill="#ADD1B2" rx="11" ry="11" style="stroke:#181818;stroke-width:1;"/><path d="M408.5433,21.875 Q408.6996,21.6563 408.8871,21.5469 Q409.0746,21.4375 409.2933,21.4375 Q409.6683,21.4375 409.9027,21.6953 Q410.1371,21.9531 410.1371,22.5625 L410.1371,24.0156 Q410.1371,24.625 409.9027,24.8906 Q409.6683,25.1563 409.2933,25.1563 Q408.9496,25.1563 408.7464,24.9531 Q408.5433,24.7656 408.4339,24.25 Q408.3871,23.8906 408.1996,23.7031 Q407.8714,23.3281 407.2621,23.1094 Q406.6527,22.8906 406.0277,22.8906 Q405.2621,22.8906 404.6293,23.2188 Q403.9964,23.5469 403.5043,24.2969 Q403.0121,25.0469 403.0121,26.0781 L403.0121,27.1719 Q403.0121,28.4063 403.9027,29.2266 Q404.7933,30.0469 406.3871,30.0469 Q407.3246,30.0469 407.9808,29.7969 Q408.3714,29.6406 408.7933,29.2031 Q409.0589,28.9375 409.2074,28.8594 Q409.3558,28.7813 409.5589,28.7813 Q409.8871,28.7813 410.1449,29.0391 Q410.4027,29.2969 410.4027,29.6406 Q410.4027,29.9844 410.0589,30.3906 Q409.5589,30.9688 408.7621,31.2969 Q407.6839,31.75 406.3871,31.75 Q404.8714,31.75 403.6683,31.125 Q402.6839,30.625 401.9964,29.5547 Q401.3089,28.4844 401.3089,27.2031 L401.3089,26.0469 Q401.3089,24.7188 401.9261,23.5703 Q402.5433,22.4219 403.6371,21.8047 Q404.7308,21.1875 405.9652,21.1875 Q406.6996,21.1875 407.348,21.3516 Q407.9964,21.5156 408.5433,21.875 Z " fill="#000000"/><text fill="#000000" font-family="sans-serif" font-size="14" lengthAdjust="spacing" textLength="80.917" x="419.7777" y="31.7285">ICommand`1</text><rect fill="#FFFFFF" height="17.0938" style="stroke:#181818;stroke-width:1;stroke-dasharray:2,2;" width="9.3301" x="508.6947" y="7"/><text fill="#000000" font-family="sans-serif" font-size="12" font-style="italic" lengthAdjust="spacing" textLength="7.3301" x="509.6947" y="20.457">T</text><line style="stroke:#181818;stroke-width:0.5;" x1="391.7777" x2="514.0248" y1="42" y2="42"/><line style="stroke:#181818;stroke-width:0.5;" x1="391.7777" x2="514.0248" y1="50" y2="50"/></g><!--class HelloWorldCommandHandler--><g class="entity" data-entity="HelloWorldCommandHandler" data-source-line="19" data-uid="ent0008" id="entity_HelloWorldCommandHandler"><rect fill="#F1F1F1" height="83.2188" rx="2.5" ry="2.5" style="stroke:#181818;stroke-width:0.5;" width="553.5293" x="528.7777" y="118"/><ellipse cx="710.2582" cy="134" fill="#ADD1B2" rx="11" ry="11" style="stroke:#181818;stroke-width:1;"/><path d="M713.0238,129.875 Q713.18,129.6563 713.3675,129.5469 Q713.555,129.4375 713.7738,129.4375 Q714.1488,129.4375 714.3832,129.6953 Q714.6175,129.9531 714.6175,130.5625 L714.6175,132.0156 Q714.6175,132.625 714.3832,132.8906 Q714.1488,133.1563 713.7738,133.1563 Q713.43,133.1563 713.2269,132.9531 Q713.0238,132.7656 712.9144,132.25 Q712.8675,131.8906 712.68,131.7031 Q712.3519,131.3281 711.7425,131.1094 Q711.1332,130.8906 710.5082,130.8906 Q709.7425,130.8906 709.1097,131.2188 Q708.4769,131.5469 707.9847,132.2969 Q707.4925,133.0469 707.4925,134.0781 L707.4925,135.1719 Q707.4925,136.4063 708.3832,137.2266 Q709.2738,138.0469 710.8675,138.0469 Q711.805,138.0469 712.4613,137.7969 Q712.8519,137.6406 713.2738,137.2031 Q713.5394,136.9375 713.6878,136.8594 Q713.8363,136.7813 714.0394,136.7813 Q714.3675,136.7813 714.6253,137.0391 Q714.8832,137.2969 714.8832,137.6406 Q714.8832,137.9844 714.5394,138.3906 Q714.0394,138.9688 713.2425,139.2969 Q712.1644,139.75 710.8675,139.75 Q709.3519,139.75 708.1488,139.125 Q707.1644,138.625 706.4769,137.5547 Q705.7894,136.4844 705.7894,135.2031 L705.7894,134.0469 Q705.7894,132.7188 706.4066,131.5703 Q707.0238,130.4219 708.1175,129.8047 Q709.2113,129.1875 710.4457,129.1875 Q711.18,129.1875 711.8285,129.3516 Q712.4769,129.5156 713.0238,129.875 Z " fill="#000000"/><text fill="#000000" font-family="sans-serif" font-size="14" lengthAdjust="spacing" textLength="182.0684" x="730.7582" y="139.7285">HelloWorldCommandHandler</text><line style="stroke:#181818;stroke-width:0.5;" x1="529.7777" x2="1081.307" y1="150" y2="150"/><line style="stroke:#181818;stroke-width:0.5;" x1="529.7777" x2="1081.307" y1="158" y2="158"/><ellipse cx="539.7777" cy="172.3047" fill="#84BE84" rx="3" ry="3" style="stroke:#038048;stroke-width:1;"/><text fill="#000000" font-family="sans-serif" font-size="14" lengthAdjust="spacing" textLength="360.2402" x="548.7777" y="176.5332">HelloWorldCommandHandler(stringHasher:IStringHasher)</text><ellipse cx="539.7777" cy="189.9141" fill="#84BE84" rx="3" ry="3" style="stroke:#038048;stroke-width:1;"/><text fill="#000000" font-family="sans-serif" font-size="14" lengthAdjust="spacing" textLength="527.5293" x="548.7777" y="194.1426">ExecuteAsync(command:HelloWorldCommand, previousResult:string) : Task&lt;string&gt;</text></g><!--class ICommandHandler`2--><g class="entity" data-entity="ICommandHandler.2" data-source-line="23" data-uid="ent0009" id="entity_ICommandHandler.2"><rect fill="#F1F1F1" height="48" rx="2.5" ry="2.5" style="stroke:#181818;stroke-width:0.5;" width="197.2861" x="603.2777" y="10"/><ellipse cx="618.2777" cy="26" fill="#ADD1B2" rx="11" ry="11" style="stroke:#181818;stroke-width:1;"/><path d="M621.0433,21.875 Q621.1996,21.6563 621.3871,21.5469 Q621.5746,21.4375 621.7933,21.4375 Q622.1683,21.4375 622.4027,21.6953 Q622.6371,21.9531 622.6371,22.5625 L622.6371,24.0156 Q622.6371,24.625 622.4027,24.8906 Q622.1683,25.1563 621.7933,25.1563 Q621.4496,25.1563 621.2464,24.9531 Q621.0433,24.7656 620.9339,24.25 Q620.8871,23.8906 620.6996,23.7031 Q620.3714,23.3281 619.7621,23.1094 Q619.1527,22.8906 618.5277,22.8906 Q617.7621,22.8906 617.1293,23.2188 Q616.4964,23.5469 616.0043,24.2969 Q615.5121,25.0469 615.5121,26.0781 L615.5121,27.1719 Q615.5121,28.4063 616.4027,29.2266 Q617.2933,30.0469 618.8871,30.0469 Q619.8246,30.0469 620.4808,29.7969 Q620.8714,29.6406 621.2933,29.2031 Q621.5589,28.9375 621.7074,28.8594 Q621.8558,28.7813 622.0589,28.7813 Q622.3871,28.7813 622.6449,29.0391 Q622.9027,29.2969 622.9027,29.6406 Q622.9027,29.9844 622.5589,30.3906 Q622.0589,30.9688 621.2621,31.2969 Q620.1839,31.75 618.8871,31.75 Q617.3714,31.75 616.1683,31.125 Q615.1839,30.625 614.4964,29.5547 Q613.8089,28.4844 613.8089,27.2031 L613.8089,26.0469 Q613.8089,24.7188 614.4261,23.5703 Q615.0433,22.4219 616.1371,21.8047 Q617.2308,21.1875 618.4652,21.1875 Q619.1996,21.1875 619.848,21.3516 Q620.4964,21.5156 621.0433,21.875 Z " fill="#000000"/><text fill="#000000" font-family="sans-serif" font-size="14" lengthAdjust="spacing" textLength="129.9443" x="632.2777" y="31.7285">ICommandHandler`2</text><rect fill="#FFFFFF" height="17.0938" style="stroke:#181818;stroke-width:1;stroke-dasharray:2,2;" width="33.3418" x="770.222" y="7"/><text fill="#000000" font-family="sans-serif" font-size="12" font-style="italic" lengthAdjust="spacing" textLength="31.3418" x="771.222" y="20.457">T1,T2</text><line style="stroke:#181818;stroke-width:0.5;" x1="604.2777" x2="799.5638" y1="42" y2="42"/><line style="stroke:#181818;stroke-width:0.5;" x1="604.2777" x2="799.5638" y1="50" y2="50"/></g><!--class IStringHasher--><g class="entity" data-entity="IStringHasher" data-source-line="26" data-uid="ent0011" id="entity_IStringHasher"><rect fill="#F1F1F1" height="65.6094" rx="2.5" ry="2.5" style="stroke:#181818;stroke-width:0.5;" width="171.5029" x="719.7777" y="261"/><ellipse cx="759.0373" cy="277" fill="#B4A7E5" rx="11" ry="11" style="stroke:#181818;stroke-width:1;"/><path d="M759.9904,273.6406 L759.9904,280.2969 L761.7091,280.2969 Q762.3185,280.2969 762.5841,280.5313 Q762.8498,280.7656 762.8498,281.1563 Q762.8498,281.5313 762.5841,281.7656 Q762.3185,282 761.7091,282 L756.5685,282 Q755.9591,282 755.6935,281.7656 Q755.4279,281.5313 755.4279,281.1406 Q755.4279,280.7656 755.6935,280.5313 Q755.9591,280.2969 756.5685,280.2969 L758.2873,280.2969 L758.2873,273.6406 L756.5685,273.6406 Q755.9591,273.6406 755.6935,273.4063 Q755.4279,273.1719 755.4279,272.7813 Q755.4279,272.4063 755.6935,272.1719 Q755.9591,271.9375 756.5685,271.9375 L761.7091,271.9375 Q762.3185,271.9375 762.5841,272.1719 Q762.8498,272.4063 762.8498,272.7813 Q762.8498,273.1719 762.5841,273.4063 Q762.3185,273.6406 761.7091,273.6406 L759.9904,273.6406 Z " fill="#000000"/><text fill="#000000" font-family="sans-serif" font-size="14" font-style="italic" lengthAdjust="spacing" textLength="85.5928" x="778.4283" y="282.7285">IStringHasher</text><line style="stroke:#181818;stroke-width:0.5;" x1="720.7777" x2="890.2806" y1="293" y2="293"/><line style="stroke:#181818;stroke-width:0.5;" x1="720.7777" x2="890.2806" y1="301" y2="301"/><text fill="#000000" font-family="sans-serif" font-size="14" lengthAdjust="spacing" textLength="159.5029" x="725.7777" y="319.5332">Hash(value:string) : string</text></g><!--class StringHasher--><g class="entity" data-entity="StringHasher" data-source-line="37" data-uid="ent0017" id="entity_StringHasher"><rect fill="#F1F1F1" height="65.6094" rx="2.5" ry="2.5" style="stroke:#181818;stroke-width:0.5;" width="185.5029" x="712.7777" y="387"/><ellipse cx="760.4276" cy="403" fill="#ADD1B2" rx="11" ry="11" style="stroke:#181818;stroke-width:1;"/><path d="M763.1932,398.875 Q763.3495,398.6563 763.537,398.5469 Q763.7245,398.4375 763.9432,398.4375 Q764.3182,398.4375 764.5526,398.6953 Q764.787,398.9531 764.787,399.5625 L764.787,401.0156 Q764.787,401.625 764.5526,401.8906 Q764.3182,402.1563 763.9432,402.1563 Q763.5995,402.1563 763.3963,401.9531 Q763.1932,401.7656 763.0838,401.25 Q763.037,400.8906 762.8495,400.7031 Q762.5213,400.3281 761.912,400.1094 Q761.3026,399.8906 760.6776,399.8906 Q759.912,399.8906 759.2792,400.2188 Q758.6463,400.5469 758.1542,401.2969 Q757.662,402.0469 757.662,403.0781 L757.662,404.1719 Q757.662,405.4063 758.5526,406.2266 Q759.4432,407.0469 761.037,407.0469 Q761.9745,407.0469 762.6307,406.7969 Q763.0213,406.6406 763.4432,406.2031 Q763.7088,405.9375 763.8573,405.8594 Q764.0057,405.7813 764.2088,405.7813 Q764.537,405.7813 764.7948,406.0391 Q765.0526,406.2969 765.0526,406.6406 Q765.0526,406.9844 764.7088,407.3906 Q764.2088,407.9688 763.412,408.2969 Q762.3338,408.75 761.037,408.75 Q759.5213,408.75 758.3182,408.125 Q757.3338,407.625 756.6463,406.5547 Q755.9588,405.4844 755.9588,404.2031 L755.9588,403.0469 Q755.9588,401.7188 756.576,400.5703 Q757.1932,399.4219 758.287,398.8047 Q759.3807,398.1875 760.6151,398.1875 Q761.3495,398.1875 761.9979,398.3516 Q762.6463,398.5156 763.1932,398.875 Z " fill="#000000"/><text fill="#000000" font-family="sans-serif" font-size="14" lengthAdjust="spacing" textLength="81.7031" x="780.9276" y="408.7285">StringHasher</text><line style="stroke:#181818;stroke-width:0.5;" x1="713.7777" x2="897.2806" y1="419" y2="419"/><line style="stroke:#181818;stroke-width:0.5;" x1="713.7777" x2="897.2806" y1="427" y2="427"/><ellipse cx="723.7777" cy="441.3047" fill="#84BE84" rx="3" ry="3" style="stroke:#038048;stroke-width:1;"/><text fill="#000000" font-family="sans-serif" font-size="14" lengthAdjust="spacing" textLength="159.5029" x="732.7777" y="445.5332">Hash(value:string) : string</text></g><!--class FunctionAppConfiguration--><g class="entity" data-entity="FunctionAppConfiguration" data-source-line="42" data-uid="ent0019" id="entity_FunctionAppConfiguration"><rect fill="#F1F1F1" height="65.6094" rx="2.5" ry="2.5" style="stroke:#181818;stroke-width:0.5;" width="279.6748" x="1117.7777" y="126.5"/><ellipse cx="1172.4242" cy="142.5" fill="#ADD1B2" rx="11" ry="11" style="stroke:#181818;stroke-width:1;"/><path d="M1175.1898,138.375 Q1175.346,138.1563 1175.5335,138.0469 Q1175.721,137.9375 1175.9398,137.9375 Q1176.3148,137.9375 1176.5492,138.1953 Q1176.7835,138.4531 1176.7835,139.0625 L1176.7835,140.5156 Q1176.7835,141.125 1176.5492,141.3906 Q1176.3148,141.6563 1175.9398,141.6563 Q1175.596,141.6563 1175.3929,141.4531 Q1175.1898,141.2656 1175.0804,140.75 Q1175.0335,140.3906 1174.846,140.2031 Q1174.5179,139.8281 1173.9085,139.6094 Q1173.2992,139.3906 1172.6742,139.3906 Q1171.9085,139.3906 1171.2757,139.7188 Q1170.6429,140.0469 1170.1507,140.7969 Q1169.6585,141.5469 1169.6585,142.5781 L1169.6585,143.6719 Q1169.6585,144.9063 1170.5492,145.7266 Q1171.4398,146.5469 1173.0335,146.5469 Q1173.971,146.5469 1174.6273,146.2969 Q1175.0179,146.1406 1175.4398,145.7031 Q1175.7054,145.4375 1175.8539,145.3594 Q1176.0023,145.2813 1176.2054,145.2813 Q1176.5335,145.2813 1176.7914,145.5391 Q1177.0492,145.7969 1177.0492,146.1406 Q1177.0492,146.4844 1176.7054,146.8906 Q1176.2054,147.4688 1175.4085,147.7969 Q1174.3304,148.25 1173.0335,148.25 Q1171.5179,148.25 1170.3148,147.625 Q1169.3304,147.125 1168.6429,146.0547 Q1167.9554,144.9844 1167.9554,143.7031 L1167.9554,142.5469 Q1167.9554,141.2188 1168.5726,140.0703 Q1169.1898,138.9219 1170.2835,138.3047 Q1171.3773,137.6875 1172.6117,137.6875 Q1173.346,137.6875 1173.9945,137.8516 Q1174.6429,138.0156 1175.1898,138.375 Z " fill="#000000"/><text fill="#000000" font-family="sans-serif" font-size="14" lengthAdjust="spacing" textLength="161.8818" x="1192.9242" y="148.2285">FunctionAppConfiguration</text><line style="stroke:#181818;stroke-width:0.5;" x1="1118.7777" x2="1396.4525" y1="158.5" y2="158.5"/><line style="stroke:#181818;stroke-width:0.5;" x1="1118.7777" x2="1396.4525" y1="166.5" y2="166.5"/><ellipse cx="1128.7777" cy="180.8047" fill="#84BE84" rx="3" ry="3" style="stroke:#038048;stroke-width:1;"/><text fill="#000000" font-family="sans-serif" font-size="14" lengthAdjust="spacing" textLength="253.6748" x="1137.7777" y="185.0332">Build(builder:IFunctionHostBuilder) : void</text></g><!--class IFunctionAppConfiguration--><g class="entity" data-entity="IFunctionAppConfiguration" data-source-line="45" data-uid="ent0020" id="entity_IFunctionAppConfiguration"><rect fill="#F1F1F1" height="48" rx="2.5" ry="2.5" style="stroke:#181818;stroke-width:0.5;" width="197.7715" x="1158.7777" y="10"/><ellipse cx="1173.7777" cy="26" fill="#ADD1B2" rx="11" ry="11" style="stroke:#181818;stroke-width:1;"/><path d="M1176.5433,21.875 Q1176.6996,21.6563 1176.8871,21.5469 Q1177.0746,21.4375 1177.2933,21.4375 Q1177.6683,21.4375 1177.9027,21.6953 Q1178.1371,21.9531 1178.1371,22.5625 L1178.1371,24.0156 Q1178.1371,24.625 1177.9027,24.8906 Q1177.6683,25.1563 1177.2933,25.1563 Q1176.9496,25.1563 1176.7464,24.9531 Q1176.5433,24.7656 1176.4339,24.25 Q1176.3871,23.8906 1176.1996,23.7031 Q1175.8714,23.3281 1175.2621,23.1094 Q1174.6527,22.8906 1174.0277,22.8906 Q1173.2621,22.8906 1172.6293,23.2188 Q1171.9964,23.5469 1171.5043,24.2969 Q1171.0121,25.0469 1171.0121,26.0781 L1171.0121,27.1719 Q1171.0121,28.4063 1171.9027,29.2266 Q1172.7933,30.0469 1174.3871,30.0469 Q1175.3246,30.0469 1175.9808,29.7969 Q1176.3714,29.6406 1176.7933,29.2031 Q1177.0589,28.9375 1177.2074,28.8594 Q1177.3558,28.7813 1177.5589,28.7813 Q1177.8871,28.7813 1178.1449,29.0391 Q1178.4027,29.2969 1178.4027,29.6406 Q1178.4027,29.9844 1178.0589,30.3906 Q1177.5589,30.9688 1176.7621,31.2969 Q1175.6839,31.75 1174.3871,31.75 Q1172.8714,31.75 1171.6683,31.125 Q1170.6839,30.625 1169.9964,29.5547 Q1169.3089,28.4844 1169.3089,27.2031 L1169.3089,26.0469 Q1169.3089,24.7188 1169.9261,23.5703 Q1170.5433,22.4219 1171.6371,21.8047 Q1172.7308,21.1875 1173.9652,21.1875 Q1174.6996,21.1875 1175.348,21.3516 Q1175.9964,21.5156 1176.5433,21.875 Z " fill="#000000"/><text fill="#000000" font-family="sans-serif" font-size="14" lengthAdjust="spacing" textLength="165.7715" x="1187.7777" y="31.7285">IFunctionAppConfiguration</text><line style="stroke:#181818;stroke-width:0.5;" x1="1159.7777" x2="1355.5492" y1="42" y2="42"/><line style="stroke:#181818;stroke-width:0.5;" x1="1159.7777" x2="1355.5492" y1="50" y2="50"/></g><!--reverse link AbstractValidator`1 to HelloWorldCommandValidator--><g class="link" data-entity-1="AbstractValidator.1" data-entity-2="HelloWorldCommandValidator" data-source-line="10" data-uid="lnk4" id="link_AbstractValidator.1_HelloWorldCommandValidator"><path codeLine="10" d="M160.7777,76.2 C160.7777,95.57 160.7777,104.95 160.7777,126.36" fill="none" id="AbstractValidator`1-backto-HelloWorldCommandValidator" style="stroke:#181818;stroke-width:1;"/><polygon fill="none" points="160.7777,58.2,154.7777,76.2,166.7777,76.2,160.7777,58.2" style="stroke:#181818;stroke-width:1;"/><text fill="#000000" font-family="sans-serif" font-size="13" lengthAdjust="spacing" textLength="138.7217" x="6" y="79.5867">&lt;HelloWorldCommand&gt;</text></g><!--reverse link ICommand`1 to HelloWorldCommand--><g class="link" data-entity-1="ICommand.1" data-entity-2="HelloWorldCommand" data-source-line="17" data-uid="lnk7" id="link_ICommand.1_HelloWorldCommand"><path codeLine="17" d="M442.2777,76.2 C442.2777,95.57 442.2777,104.95 442.2777,126.36" fill="none" id="ICommand`1-backto-HelloWorldCommand" style="stroke:#181818;stroke-width:1;"/><polygon fill="none" points="442.2777,58.2,436.2777,76.2,448.2777,76.2,442.2777,58.2" style="stroke:#181818;stroke-width:1;"/><text fill="#000000" font-family="sans-serif" font-size="13" lengthAdjust="spacing" textLength="46.9727" x="388.2005" y="79.5867">&lt;string&gt;</text></g><!--reverse link ICommandHandler`2 to HelloWorldCommandHandler--><g class="link" data-entity-1="ICommandHandler.2" data-entity-2="HelloWorldCommandHandler" data-source-line="25" data-uid="lnk10" id="link_ICommandHandler.2_HelloWorldCommandHandler"><path codeLine="25" d="M701.7777,76.2 C701.7777,93.08 701.7777,98.04 701.7777,117.83" fill="none" id="ICommandHandler`2-backto-HelloWorldCommandHandler" style="stroke:#181818;stroke-width:1;"/><polygon fill="none" points="701.7777,58.2,695.7777,76.2,707.7777,76.2,701.7777,58.2" style="stroke:#181818;stroke-width:1;"/><text fill="#000000" font-family="sans-serif" font-size="13" lengthAdjust="spacing" textLength="174.1226" x="506.5515" y="79.5867">&lt;HelloWorldCommand,string&gt;</text></g><!--link HelloWorldCommandHandler to IStringHasher--><g class="link" data-entity-1="HelloWorldCommandHandler" data-entity-2="IStringHasher" data-source-line="26" data-uid="lnk12" id="link_HelloWorldCommandHandler_IStringHasher"><path codeLine="26" d="M805.7777,201.32 C805.7777,220.44 805.7777,236.79 805.7777,254.74" fill="none" id="HelloWorldCommandHandler-to-IStringHasher" style="stroke:#181818;stroke-width:1;"/><polygon fill="#181818" points="805.7777,260.74,809.7777,251.74,805.7777,255.74,801.7777,251.74,805.7777,260.74" style="stroke:#181818;stroke-width:1;"/><text fill="#000000" font-family="sans-serif" font-size="13" lengthAdjust="spacing" textLength="80.9263" x="718.0428" y="250.1851">_stringHasher</text></g><!--reverse link ICommand`1 to ICommandHandler`2--><g class="link" data-entity-1="ICommand.1" data-entity-2="ICommandHandler.2" data-source-line="29" data-uid="lnk13" id="link_ICommand.1_ICommandHandler.2"><path codeLine="29" d="M520.9677,34 C547.6177,34 573.3977,34 603.1177,34" fill="none" id="ICommand`1-backto-ICommandHandler`2" style="stroke:#181818;stroke-width:1;"/><polygon fill="#181818" points="514.9677,34,523.9677,38,519.9677,34,523.9677,30,514.9677,34" style="stroke:#181818;stroke-width:1;"/><text fill="#000000" font-family="sans-serif" font-size="13" lengthAdjust="spacing" textLength="50.5781" x="547.0477" y="48.4951">mediator</text></g><!--link HelloWorldCommand to HelloWorldCommandHandler--><g class="link" data-entity-1="HelloWorldCommand" data-entity-2="HelloWorldCommandHandler" data-source-line="30" data-uid="lnk14" id="link_HelloWorldCommand_HelloWorldCommandHandler"><path codeLine="30" d="M493.9477,160 C504.9277,160 510.5177,160 522.5077,160" fill="none" id="HelloWorldCommand-to-HelloWorldCommandHandler" style="stroke:#181818;stroke-width:1;"/><polygon fill="#181818" points="528.5077,160,519.5077,156,523.5077,160,519.5077,164,528.5077,160" style="stroke:#181818;stroke-width:1;"/></g><!--reverse link HelloWorldCommandValidator to HelloWorldCommand--><g class="link" data-entity-1="HelloWorldCommandValidator" data-entity-2="HelloWorldCommand" data-source-line="31" data-uid="lnk16" id="link_HelloWorldCommandValidator_HelloWorldCommand"><path codeLine="31" d="M279.0477,160 C290.6377,160 296.3277,160 307.6677,160" fill="none" id="HelloWorldCommandValidator-backto-HelloWorldCommand" style="stroke:#181818;stroke-width:1;"/><polygon fill="#181818" points="273.0477,160,282.0477,164,278.0477,160,282.0477,156,273.0477,160" style="stroke:#181818;stroke-width:1;"/></g><!--reverse link IStringHasher to StringHasher--><g class="link" data-entity-1="IStringHasher" data-entity-2="StringHasher" data-source-line="40" data-uid="lnk18" id="link_IStringHasher_StringHasher"><path codeLine="40" d="M805.7777,345.11 C805.7777,363.48 805.7777,368.27 805.7777,386.68" fill="none" id="IStringHasher-backto-StringHasher" style="stroke:#181818;stroke-width:1;"/><polygon fill="none" points="805.7777,327.11,799.7777,345.11,811.7777,345.11,805.7777,327.11" style="stroke:#181818;stroke-width:1;"/></g><!--reverse link IFunctionAppConfiguration to FunctionAppConfiguration--><g class="link" data-entity-1="IFunctionAppConfiguration" data-entity-2="FunctionAppConfiguration" data-source-line="45" data-uid="lnk21" id="link_IFunctionAppConfiguration_FunctionAppConfiguration"><path codeLine="45" d="M1257.7777,76.2 C1257.7777,95.57 1257.7777,104.95 1257.7777,126.36" fill="none" id="IFunctionAppConfiguration-backto-FunctionAppConfiguration" style="stroke:#181818;stroke-width:1;"/><polygon fill="none" points="1257.7777,58.2,1251.7777,76.2,1263.7777,76.2,1257.7777,58.2" style="stroke:#181818;stroke-width:1;"/></g><!--SRC=[ZL9TRu8m57tlhsXu6KPvq4T2IDHimPSzJBCzpWfNRImjQOkPsVplQmKLneSZWTBUtdFEFVUg0-KPaIJ5Z7BGfmnm9jZ9Rf1gneJKUu5Gp8XIE0B6n8UGB9cBD2KyUIUC9aGBYRyHDi-mvuexGESInvbkb9OarhVWUkm4gz2Wd55h43j10pbqSF3ZUJsKdRflSbz92jZ7Xf3o7Gw27UWmDAkowrtleiohogoS6NK5GgUaJYMHUHdq-5TUS0k2YAWzI7-nhEm6PUhp5yIvXgawyTYDYso_WJV2cOGZ5Rbw0vKpxHV00-F2YgZ3jP1cxQMGzSHOC1wj9dzik8VRUZLwu4-PZJhzyRmGEvzL4nnSSm6X9xm4ZLKi0RYPQKKr5RpUfy1hgyUKda92BnFJ71L3_7-vs6EmrM7lJ5AkGMv93FK2oX6m6_T8M0wLpXH_nkwoAIrvmmUPTQvB5-hs5SWlEO-jRzCicmk-fRjS4hk_iSnooX9tOxzs4A_t8w7qh3Yqj4T14qlQ2NSHq1L5lm00]--></g></svg>