<svg xmlns="http://www.w3.org/2000/svg" xmlns:xlink="http://www.w3.org/1999/xlink" contentStyleType="text/css" data-diagram-type="CLASS" height="244px" preserveAspectRatio="none" style="width:624px;height:244px;background:#FFFFFF;" version="1.1" viewBox="0 0 624 244" width="624px" zoomAndPan="magnify"><title>Mediator Pattern</title><defs/><g><g class="title" data-source-line="5"><text fill="#000000" font-family="sans-serif" font-size="14" font-weight="bold" lengthAdjust="spacing" textLength="110.4619" x="250.2119" y="24.5332">Mediator Pattern</text></g><!--class INotification--><g class="entity" data-entity="INotification" data-source-line="8" data-uid="ent0002" id="entity_INotification"><rect fill="#F1F1F1" height="65.6094" rx="2.5" ry="2.5" style="stroke:#181818;stroke-width:0.5;" width="105.1445" x="33.5" y="45.6094"/><ellipse cx="48.5" cy="61.6094" fill="#B4A7E5" rx="11" ry="11" style="stroke:#181818;stroke-width:1;"/><path d="M49.4531,58.25 L49.4531,64.9063 L51.1719,64.9063 Q51.7813,64.9063 52.0469,65.1406 Q52.3125,65.375 52.3125,65.7656 Q52.3125,66.1406 52.0469,66.375 Q51.7813,66.6094 51.1719,66.6094 L46.0313,66.6094 Q45.4219,66.6094 45.1563,66.375 Q44.8906,66.1406 44.8906,65.75 Q44.8906,65.375 45.1563,65.1406 Q45.4219,64.9063 46.0313,64.9063 L47.75,64.9063 L47.75,58.25 L46.0313,58.25 Q45.4219,58.25 45.1563,58.0156 Q44.8906,57.7813 44.8906,57.3906 Q44.8906,57.0156 45.1563,56.7813 Q45.4219,56.5469 46.0313,56.5469 L51.1719,56.5469 Q51.7813,56.5469 52.0469,56.7813 Q52.3125,57.0156 52.3125,57.3906 Q52.3125,57.7813 52.0469,58.0156 Q51.7813,58.25 51.1719,58.25 L49.4531,58.25 Z " fill="#000000"/><text fill="#000000" font-family="sans-serif" font-size="14" font-style="italic" lengthAdjust="spacing" textLength="73.1445" x="62.5" y="67.3379">INotification</text><line style="stroke:#181818;stroke-width:0.5;" x1="34.5" x2="137.6445" y1="77.6094" y2="77.6094"/><line style="stroke:#181818;stroke-width:0.5;" x1="34.5" x2="137.6445" y1="85.6094" y2="85.6094"/><text fill="#000000" font-family="sans-serif" font-size="14" lengthAdjust="spacing" textLength="59.1309" x="39.5" y="104.1426">mediate()</text></g><!--class INotificationHandler--><g class="entity" data-entity="INotificationHandler" data-source-line="9" data-uid="ent0003" id="entity_INotificationHandler"><rect fill="#F1F1F1" height="65.6094" rx="2.5" ry="2.5" style="stroke:#181818;stroke-width:0.5;" width="154.1719" x="174" y="45.6094"/><ellipse cx="189" cy="61.6094" fill="#B4A7E5" rx="11" ry="11" style="stroke:#181818;stroke-width:1;"/><path d="M189.9531,58.25 L189.9531,64.9063 L191.6719,64.9063 Q192.2813,64.9063 192.5469,65.1406 Q192.8125,65.375 192.8125,65.7656 Q192.8125,66.1406 192.5469,66.375 Q192.2813,66.6094 191.6719,66.6094 L186.5313,66.6094 Q185.9219,66.6094 185.6563,66.375 Q185.3906,66.1406 185.3906,65.75 Q185.3906,65.375 185.6563,65.1406 Q185.9219,64.9063 186.5313,64.9063 L188.25,64.9063 L188.25,58.25 L186.5313,58.25 Q185.9219,58.25 185.6563,58.0156 Q185.3906,57.7813 185.3906,57.3906 Q185.3906,57.0156 185.6563,56.7813 Q185.9219,56.5469 186.5313,56.5469 L191.6719,56.5469 Q192.2813,56.5469 192.5469,56.7813 Q192.8125,57.0156 192.8125,57.3906 Q192.8125,57.7813 192.5469,58.0156 Q192.2813,58.25 191.6719,58.25 L189.9531,58.25 Z " fill="#000000"/><text fill="#000000" font-family="sans-serif" font-size="14" font-style="italic" lengthAdjust="spacing" textLength="122.1719" x="203" y="67.3379">INotificationHandler</text><line style="stroke:#181818;stroke-width:0.5;" x1="175" x2="327.1719" y1="77.6094" y2="77.6094"/><line style="stroke:#181818;stroke-width:0.5;" x1="175" x2="327.1719" y1="85.6094" y2="85.6094"/><text fill="#000000" font-family="sans-serif" font-size="14" lengthAdjust="spacing" textLength="72.3379" x="180" y="104.1426">NotifyText()</text></g><!--class NotificationMessage--><g class="entity" data-entity="NotificationMessage" data-source-line="12" data-uid="ent0004" id="entity_NotificationMessage"><rect fill="#F1F1F1" height="65.6094" rx="2.5" ry="2.5" style="stroke:#181818;stroke-width:0.5;" width="158.0615" x="7" y="171.6094"/><ellipse cx="22" cy="187.6094" fill="#ADD1B2" rx="11" ry="11" style="stroke:#181818;stroke-width:1;"/><path d="M24.7656,183.4844 Q24.9219,183.2656 25.1094,183.1563 Q25.2969,183.0469 25.5156,183.0469 Q25.8906,183.0469 26.125,183.3047 Q26.3594,183.5625 26.3594,184.1719 L26.3594,185.625 Q26.3594,186.2344 26.125,186.5 Q25.8906,186.7656 25.5156,186.7656 Q25.1719,186.7656 24.9688,186.5625 Q24.7656,186.375 24.6563,185.8594 Q24.6094,185.5 24.4219,185.3125 Q24.0938,184.9375 23.4844,184.7188 Q22.875,184.5 22.25,184.5 Q21.4844,184.5 20.8516,184.8281 Q20.2188,185.1563 19.7266,185.9063 Q19.2344,186.6563 19.2344,187.6875 L19.2344,188.7813 Q19.2344,190.0156 20.125,190.8359 Q21.0156,191.6563 22.6094,191.6563 Q23.5469,191.6563 24.2031,191.4063 Q24.5938,191.25 25.0156,190.8125 Q25.2813,190.5469 25.4297,190.4688 Q25.5781,190.3906 25.7813,190.3906 Q26.1094,190.3906 26.3672,190.6484 Q26.625,190.9063 26.625,191.25 Q26.625,191.5938 26.2813,192 Q25.7813,192.5781 24.9844,192.9063 Q23.9063,193.3594 22.6094,193.3594 Q21.0938,193.3594 19.8906,192.7344 Q18.9063,192.2344 18.2188,191.1641 Q17.5313,190.0938 17.5313,188.8125 L17.5313,187.6563 Q17.5313,186.3281 18.1484,185.1797 Q18.7656,184.0313 19.8594,183.4141 Q20.9531,182.7969 22.1875,182.7969 Q22.9219,182.7969 23.5703,182.9609 Q24.2188,183.125 24.7656,183.4844 Z " fill="#000000"/><text fill="#000000" font-family="sans-serif" font-size="14" lengthAdjust="spacing" textLength="126.0615" x="36" y="193.3379">NotificationMessage</text><line style="stroke:#181818;stroke-width:0.5;" x1="8" x2="164.0615" y1="203.6094" y2="203.6094"/><line style="stroke:#181818;stroke-width:0.5;" x1="8" x2="164.0615" y1="211.6094" y2="211.6094"/><text fill="#000000" font-family="sans-serif" font-size="14" lengthAdjust="spacing" textLength="72.3379" x="13" y="230.1426">NotifyText()</text></g><!--class Notifier1--><g class="entity" data-entity="Notifier1" data-source-line="13" data-uid="ent0005" id="entity_Notifier1"><rect fill="#F1F1F1" height="65.6094" rx="2.5" ry="2.5" style="stroke:#181818;stroke-width:0.5;" width="84.1309" x="319" y="171.6094"/><ellipse cx="334" cy="187.6094" fill="#ADD1B2" rx="11" ry="11" style="stroke:#181818;stroke-width:1;"/><path d="M336.7656,183.4844 Q336.9219,183.2656 337.1094,183.1563 Q337.2969,183.0469 337.5156,183.0469 Q337.8906,183.0469 338.125,183.3047 Q338.3594,183.5625 338.3594,184.1719 L338.3594,185.625 Q338.3594,186.2344 338.125,186.5 Q337.8906,186.7656 337.5156,186.7656 Q337.1719,186.7656 336.9688,186.5625 Q336.7656,186.375 336.6563,185.8594 Q336.6094,185.5 336.4219,185.3125 Q336.0938,184.9375 335.4844,184.7188 Q334.875,184.5 334.25,184.5 Q333.4844,184.5 332.8516,184.8281 Q332.2188,185.1563 331.7266,185.9063 Q331.2344,186.6563 331.2344,187.6875 L331.2344,188.7813 Q331.2344,190.0156 332.125,190.8359 Q333.0156,191.6563 334.6094,191.6563 Q335.5469,191.6563 336.2031,191.4063 Q336.5938,191.25 337.0156,190.8125 Q337.2813,190.5469 337.4297,190.4688 Q337.5781,190.3906 337.7813,190.3906 Q338.1094,190.3906 338.3672,190.6484 Q338.625,190.9063 338.625,191.25 Q338.625,191.5938 338.2813,192 Q337.7813,192.5781 336.9844,192.9063 Q335.9063,193.3594 334.6094,193.3594 Q333.0938,193.3594 331.8906,192.7344 Q330.9063,192.2344 330.2188,191.1641 Q329.5313,190.0938 329.5313,188.8125 L329.5313,187.6563 Q329.5313,186.3281 330.1484,185.1797 Q330.7656,184.0313 331.8594,183.4141 Q332.9531,182.7969 334.1875,182.7969 Q334.9219,182.7969 335.5703,182.9609 Q336.2188,183.125 336.7656,183.4844 Z " fill="#000000"/><text fill="#000000" font-family="sans-serif" font-size="14" lengthAdjust="spacing" textLength="52.1309" x="348" y="193.3379">Notifier1</text><line style="stroke:#181818;stroke-width:0.5;" x1="320" x2="402.1309" y1="203.6094" y2="203.6094"/><line style="stroke:#181818;stroke-width:0.5;" x1="320" x2="402.1309" y1="211.6094" y2="211.6094"/><text fill="#000000" font-family="sans-serif" font-size="14" lengthAdjust="spacing" textLength="53.6895" x="325" y="230.1426">Handle()</text></g><!--class Notifier2--><g class="entity" data-entity="Notifier2" data-source-line="14" data-uid="ent0006" id="entity_Notifier2"><rect fill="#F1F1F1" height="65.6094" rx="2.5" ry="2.5" style="stroke:#181818;stroke-width:0.5;" width="84.1309" x="200" y="171.6094"/><ellipse cx="215" cy="187.6094" fill="#ADD1B2" rx="11" ry="11" style="stroke:#181818;stroke-width:1;"/><path d="M217.7656,183.4844 Q217.9219,183.2656 218.1094,183.1563 Q218.2969,183.0469 218.5156,183.0469 Q218.8906,183.0469 219.125,183.3047 Q219.3594,183.5625 219.3594,184.1719 L219.3594,185.625 Q219.3594,186.2344 219.125,186.5 Q218.8906,186.7656 218.5156,186.7656 Q218.1719,186.7656 217.9688,186.5625 Q217.7656,186.375 217.6563,185.8594 Q217.6094,185.5 217.4219,185.3125 Q217.0938,184.9375 216.4844,184.7188 Q215.875,184.5 215.25,184.5 Q214.4844,184.5 213.8516,184.8281 Q213.2188,185.1563 212.7266,185.9063 Q212.2344,186.6563 212.2344,187.6875 L212.2344,188.7813 Q212.2344,190.0156 213.125,190.8359 Q214.0156,191.6563 215.6094,191.6563 Q216.5469,191.6563 217.2031,191.4063 Q217.5938,191.25 218.0156,190.8125 Q218.2813,190.5469 218.4297,190.4688 Q218.5781,190.3906 218.7813,190.3906 Q219.1094,190.3906 219.3672,190.6484 Q219.625,190.9063 219.625,191.25 Q219.625,191.5938 219.2813,192 Q218.7813,192.5781 217.9844,192.9063 Q216.9063,193.3594 215.6094,193.3594 Q214.0938,193.3594 212.8906,192.7344 Q211.9063,192.2344 211.2188,191.1641 Q210.5313,190.0938 210.5313,188.8125 L210.5313,187.6563 Q210.5313,186.3281 211.1484,185.1797 Q211.7656,184.0313 212.8594,183.4141 Q213.9531,182.7969 215.1875,182.7969 Q215.9219,182.7969 216.5703,182.9609 Q217.2188,183.125 217.7656,183.4844 Z " fill="#000000"/><text fill="#000000" font-family="sans-serif" font-size="14" lengthAdjust="spacing" textLength="52.1309" x="229" y="193.3379">Notifier2</text><line style="stroke:#181818;stroke-width:0.5;" x1="201" x2="283.1309" y1="203.6094" y2="203.6094"/><line style="stroke:#181818;stroke-width:0.5;" x1="201" x2="283.1309" y1="211.6094" y2="211.6094"/><text fill="#000000" font-family="sans-serif" font-size="14" lengthAdjust="spacing" textLength="53.6895" x="206" y="230.1426">Handle()</text></g><!--class INotifierMediatorService--><g class="entity" data-entity="INotifierMediatorService" data-source-line="15" data-uid="ent0007" id="entity_INotifierMediatorService"><rect fill="#F1F1F1" height="65.6094" rx="2.5" ry="2.5" style="stroke:#181818;stroke-width:0.5;" width="181.3857" x="436.5" y="45.6094"/><ellipse cx="451.5" cy="61.6094" fill="#ADD1B2" rx="11" ry="11" style="stroke:#181818;stroke-width:1;"/><path d="M454.2656,57.4844 Q454.4219,57.2656 454.6094,57.1563 Q454.7969,57.0469 455.0156,57.0469 Q455.3906,57.0469 455.625,57.3047 Q455.8594,57.5625 455.8594,58.1719 L455.8594,59.625 Q455.8594,60.2344 455.625,60.5 Q455.3906,60.7656 455.0156,60.7656 Q454.6719,60.7656 454.4688,60.5625 Q454.2656,60.375 454.1563,59.8594 Q454.1094,59.5 453.9219,59.3125 Q453.5938,58.9375 452.9844,58.7188 Q452.375,58.5 451.75,58.5 Q450.9844,58.5 450.3516,58.8281 Q449.7188,59.1563 449.2266,59.9063 Q448.7344,60.6563 448.7344,61.6875 L448.7344,62.7813 Q448.7344,64.0156 449.625,64.8359 Q450.5156,65.6563 452.1094,65.6563 Q453.0469,65.6563 453.7031,65.4063 Q454.0938,65.25 454.5156,64.8125 Q454.7813,64.5469 454.9297,64.4688 Q455.0781,64.3906 455.2813,64.3906 Q455.6094,64.3906 455.8672,64.6484 Q456.125,64.9063 456.125,65.25 Q456.125,65.5938 455.7813,66 Q455.2813,66.5781 454.4844,66.9063 Q453.4063,67.3594 452.1094,67.3594 Q450.5938,67.3594 449.3906,66.7344 Q448.4063,66.2344 447.7188,65.1641 Q447.0313,64.0938 447.0313,62.8125 L447.0313,61.6563 Q447.0313,60.3281 447.6484,59.1797 Q448.2656,58.0313 449.3594,57.4141 Q450.4531,56.7969 451.6875,56.7969 Q452.4219,56.7969 453.0703,56.9609 Q453.7188,57.125 454.2656,57.4844 Z " fill="#000000"/><text fill="#000000" font-family="sans-serif" font-size="14" lengthAdjust="spacing" textLength="149.3857" x="465.5" y="67.3379">INotifierMediatorService</text><line style="stroke:#181818;stroke-width:0.5;" x1="437.5" x2="616.8857" y1="77.6094" y2="77.6094"/><line style="stroke:#181818;stroke-width:0.5;" x1="437.5" x2="616.8857" y1="85.6094" y2="85.6094"/><text fill="#000000" font-family="sans-serif" font-size="14" lengthAdjust="spacing" textLength="72.3379" x="442.5" y="104.1426">NotifyText()</text></g><!--class NotifierMediatorService--><g class="entity" data-entity="NotifierMediatorService" data-source-line="28" data-uid="ent0015" id="entity_NotifierMediatorService"><rect fill="#F1F1F1" height="48" rx="2.5" ry="2.5" style="stroke:#181818;stroke-width:0.5;" width="177.4961" x="438.5" y="180.6094"/><ellipse cx="453.5" cy="196.6094" fill="#ADD1B2" rx="11" ry="11" style="stroke:#181818;stroke-width:1;"/><path d="M456.2656,192.4844 Q456.4219,192.2656 456.6094,192.1563 Q456.7969,192.0469 457.0156,192.0469 Q457.3906,192.0469 457.625,192.3047 Q457.8594,192.5625 457.8594,193.1719 L457.8594,194.625 Q457.8594,195.2344 457.625,195.5 Q457.3906,195.7656 457.0156,195.7656 Q456.6719,195.7656 456.4688,195.5625 Q456.2656,195.375 456.1563,194.8594 Q456.1094,194.5 455.9219,194.3125 Q455.5938,193.9375 454.9844,193.7188 Q454.375,193.5 453.75,193.5 Q452.9844,193.5 452.3516,193.8281 Q451.7188,194.1563 451.2266,194.9063 Q450.7344,195.6563 450.7344,196.6875 L450.7344,197.7813 Q450.7344,199.0156 451.625,199.8359 Q452.5156,200.6563 454.1094,200.6563 Q455.0469,200.6563 455.7031,200.4063 Q456.0938,200.25 456.5156,199.8125 Q456.7813,199.5469 456.9297,199.4688 Q457.0781,199.3906 457.2813,199.3906 Q457.6094,199.3906 457.8672,199.6484 Q458.125,199.9063 458.125,200.25 Q458.125,200.5938 457.7813,201 Q457.2813,201.5781 456.4844,201.9063 Q455.4063,202.3594 454.1094,202.3594 Q452.5938,202.3594 451.3906,201.7344 Q450.4063,201.2344 449.7188,200.1641 Q449.0313,199.0938 449.0313,197.8125 L449.0313,196.6563 Q449.0313,195.3281 449.6484,194.1797 Q450.2656,193.0313 451.3594,192.4141 Q452.4531,191.7969 453.6875,191.7969 Q454.4219,191.7969 455.0703,191.9609 Q455.7188,192.125 456.2656,192.4844 Z " fill="#000000"/><text fill="#000000" font-family="sans-serif" font-size="14" lengthAdjust="spacing" textLength="145.4961" x="467.5" y="202.3379">NotifierMediatorService</text><line style="stroke:#181818;stroke-width:0.5;" x1="439.5" x2="614.9961" y1="212.6094" y2="212.6094"/><line style="stroke:#181818;stroke-width:0.5;" x1="439.5" x2="614.9961" y1="220.6094" y2="220.6094"/></g><!--reverse link INotification to INotificationHandler--><g class="link" data-entity-1="INotification" data-entity-2="INotificationHandler" data-source-line="18" data-uid="lnk8" id="link_INotification_INotificationHandler"><path codeLine="18" d="M144.66,78.6094 C155.88,78.6094 161.96,78.6094 173.88,78.6094" fill="none" id="INotification-backto-INotificationHandler" style="stroke:#181818;stroke-width:1;"/><polygon fill="#181818" points="138.66,78.6094,147.66,82.6094,143.66,78.6094,147.66,74.6094,138.66,78.6094" style="stroke:#181818;stroke-width:1;"/><text fill="#000000" font-family="sans-serif" font-size="13" lengthAdjust="spacing" textLength="50.5781" x="131.27" y="93.1045">mediator</text></g><!--link INotification to NotificationMessage--><!--link NotificationMessage to INotification--><g class="link" data-entity-1="NotificationMessage" data-entity-2="INotification" data-source-line="22" data-uid="lnk10" id="link_NotificationMessage_INotification"><path codeLine="22" d="M103.5,171.4994 C103.5,153.1294 103.5,148.3394 103.5,129.9294" fill="none" id="NotificationMessage-to-INotification" style="stroke:#181818;stroke-width:1;"/><polygon fill="none" points="103.5,111.9294,97.5,129.9294,109.5,129.9294,103.5,111.9294" style="stroke:#181818;stroke-width:1;"/></g><!--reverse link INotificationHandler to Notifier1--><g class="link" data-entity-1="INotificationHandler" data-entity-2="Notifier1" data-source-line="23" data-uid="lnk11" id="link_INotificationHandler_Notifier1"><path codeLine="23" d="M325,129.7194 C325,148.0894 325,152.8794 325,171.2894" fill="none" id="INotificationHandler-backto-Notifier1" style="stroke:#181818;stroke-width:1;"/><polygon fill="none" points="325,111.7194,319,129.7194,331,129.7194,325,111.7194" style="stroke:#181818;stroke-width:1;"/></g><!--reverse link INotificationHandler to Notifier2--><g class="link" data-entity-1="INotificationHandler" data-entity-2="Notifier2" data-source-line="24" data-uid="lnk12" id="link_INotificationHandler_Notifier2"><path codeLine="24" d="M242,129.7194 C242,148.0894 242,152.8794 242,171.2894" fill="none" id="INotificationHandler-backto-Notifier2" style="stroke:#181818;stroke-width:1;"/><polygon fill="none" points="242,111.7194,236,129.7194,248,129.7194,242,111.7194" style="stroke:#181818;stroke-width:1;"/></g><!--link NotificationMessage to Notifier1--><g class="link" data-entity-1="NotificationMessage" data-entity-2="Notifier1" data-source-line="25" data-uid="lnk13" id="link_NotificationMessage_Notifier1"><path codeLine="25" d="M151.75,171.2694 C151.75,156.1494 151.75,141.6094 151.75,141.6094 C151.75,141.6094 322,141.6094 322,141.6094 C322,141.6094 322,150.1494 322,165.2694" fill="none" id="NotificationMessage-to-Notifier1" style="stroke:#181818;stroke-width:1;"/><polygon fill="#181818" points="322,171.2694,326,162.2694,322,166.2694,318,162.2694,322,171.2694" style="stroke:#181818;stroke-width:1;"/></g><!--link NotificationMessage to Notifier2--><g class="link" data-entity-1="NotificationMessage" data-entity-2="Notifier2" data-source-line="26" data-uid="lnk14" id="link_NotificationMessage_Notifier2"><path codeLine="26" d="M165.37,204.6094 C177.26,204.6094 183.11,204.6094 193.81,204.6094" fill="none" id="NotificationMessage-to-Notifier2" style="stroke:#181818;stroke-width:1;"/><polygon fill="#181818" points="199.81,204.6094,190.81,200.6094,194.81,204.6094,190.81,208.6094,199.81,204.6094" style="stroke:#181818;stroke-width:1;"/></g><!--reverse link INotifierMediatorService to NotifierMediatorService--><g class="link" data-entity-1="INotifierMediatorService" data-entity-2="NotifierMediatorService" data-source-line="28" data-uid="lnk16" id="link_INotifierMediatorService_NotifierMediatorService"><path codeLine="28" d="M527,129.7194 C527,151.2994 527,160.9694 527,180.4794" fill="none" id="INotifierMediatorService-backto-NotifierMediatorService" style="stroke:#181818;stroke-width:1;"/><polygon fill="none" points="527,111.7194,521,129.7194,533,129.7194,527,111.7194" style="stroke:#181818;stroke-width:1;"/></g><!--SRC=[ZP0_JyCm4CLtVuhRQ0SFPAogp7GeGfGDCLZEbPnmxCXtGaJgXyT9_oX97S7eTp-_f_VuYtnhecd0aKVfMeGskAv_ABw_XIXrK4f87C8UAp8I8hmO4OnUgGUmpZ0ZA_99EHgBi7iEGaUoHYXuM3ey6LyvZ6fARw0PCd2rLZay0OFQlU6F96QCx97PV68UmVYO3cUNaLYCnTrLlVOyOFmcU-UOMXzGW6r4z6azfZv-rcIhOQ50St6VVT3lDLKL-WzTGgPMd_gARf2ufZPRNUjJEOtDhxWzQGstOVx15FcuScJo1r2evNqdKRFZBm00]--></g></svg>