<svg xmlns="http://www.w3.org/2000/svg" xmlns:xlink="http://www.w3.org/1999/xlink" contentStyleType="text/css" data-diagram-type="SEQUENCE" height="434px" preserveAspectRatio="none" style="width:281px;height:434px;background:#FFFFFF;" version="1.1" viewBox="0 0 281 434" width="281px" zoomAndPan="magnify"><title>Mediator Pattern</title><defs/><g><text fill="#000000" font-family="sans-serif" font-size="14" font-weight="bold" lengthAdjust="spacing" textLength="110.4619" x="84.3232" y="29.5332">Mediator Pattern</text><g><title>Colleague1</title><rect fill="#FFFFFF" height="120.7031" style="stroke:#181818;stroke-width:1;" width="10" x="42.417" y="108.5703"/></g><g><title>Colleague1</title><rect fill="#FFFFFF" height="30" style="stroke:#181818;stroke-width:1;" width="10" x="47.417" y="138.9219"/></g><g><title>Colleague1</title><rect fill="#FFFFFF" height="30" style="stroke:#181818;stroke-width:1;" width="10" x="42.417" y="350.3281"/></g><g><title>Mediator</title><rect fill="#FFFFFF" height="120.7031" style="stroke:#181818;stroke-width:1;" width="10" x="135.0542" y="108.5703"/></g><g><title>Mediator</title><rect fill="#FFFFFF" height="120.7031" style="stroke:#181818;stroke-width:1;" width="10" x="135.0542" y="259.625"/></g><g><title>Colleague2</title><rect fill="#FFFFFF" height="30" style="stroke:#181818;stroke-width:1;" width="10" x="227.6914" y="199.2734"/></g><g><title>Colleague2</title><rect fill="#FFFFFF" height="120.7031" style="stroke:#181818;stroke-width:1;" width="10" x="227.6914" y="259.625"/></g><g><title>Colleague2</title><rect fill="#FFFFFF" height="30" style="stroke:#181818;stroke-width:1;" width="10" x="232.6914" y="289.9766"/></g><g><title>Colleague1</title><rect fill="#000000" fill-opacity="0.00000" height="322.1094" width="8" x="43.417" y="76.2188"/><line style="stroke:#181818;stroke-width:0.5;stroke-dasharray:5,5;" x1="47" x2="47" y1="76.2188" y2="398.3281"/></g><g><title>Mediator</title><rect fill="#000000" fill-opacity="0.00000" height="322.1094" width="8" x="136.0542" y="76.2188"/><line style="stroke:#181818;stroke-width:0.5;stroke-dasharray:5,5;" x1="139.8198" x2="139.8198" y1="76.2188" y2="398.3281"/></g><g><title>Colleague2</title><rect fill="#000000" fill-opacity="0.00000" height="322.1094" width="8" x="228.6914" y="76.2188"/><line style="stroke:#181818;stroke-width:0.5;stroke-dasharray:5,5;" x1="232.2744" x2="232.2744" y1="76.2188" y2="398.3281"/></g><g class="participant participant-head" data-participant="Colleague1"><rect fill="#E2E2F0" height="31.6094" rx="2.5" ry="2.5" style="stroke:#181818;stroke-width:0.5;" width="84.834" x="5" y="43.6094"/><text fill="#000000" font-family="sans-serif" font-size="14" lengthAdjust="spacing" textLength="70.834" x="12" y="65.1426">Colleague1</text></g><g class="participant participant-tail" data-participant="Colleague1"><rect fill="#E2E2F0" height="31.6094" rx="2.5" ry="2.5" style="stroke:#181818;stroke-width:0.5;" width="84.834" x="5" y="397.3281"/><text fill="#000000" font-family="sans-serif" font-size="14" lengthAdjust="spacing" textLength="70.834" x="12" y="418.8613">Colleague1</text></g><g class="participant participant-head" data-participant="Mediator"><rect fill="#E2E2F0" height="31.6094" rx="2.5" ry="2.5" style="stroke:#181818;stroke-width:0.5;" width="68.4688" x="105.8198" y="43.6094"/><text fill="#000000" font-family="sans-serif" font-size="14" lengthAdjust="spacing" textLength="54.4688" x="112.8198" y="65.1426">Mediator</text></g><g class="participant participant-tail" data-participant="Mediator"><rect fill="#E2E2F0" height="31.6094" rx="2.5" ry="2.5" style="stroke:#181818;stroke-width:0.5;" width="68.4688" x="105.8198" y="397.3281"/><text fill="#000000" font-family="sans-serif" font-size="14" lengthAdjust="spacing" textLength="54.4688" x="112.8198" y="418.8613">Mediator</text></g><g class="participant participant-head" data-participant="Colleague2"><rect fill="#E2E2F0" height="31.6094" rx="2.5" ry="2.5" style="stroke:#181818;stroke-width:0.5;" width="84.834" x="190.2744" y="43.6094"/><text fill="#000000" font-family="sans-serif" font-size="14" lengthAdjust="spacing" textLength="70.834" x="197.2744" y="65.1426">Colleague2</text></g><g class="participant participant-tail" data-participant="Colleague2"><rect fill="#E2E2F0" height="31.6094" rx="2.5" ry="2.5" style="stroke:#181818;stroke-width:0.5;" width="84.834" x="190.2744" y="397.3281"/><text fill="#000000" font-family="sans-serif" font-size="14" lengthAdjust="spacing" textLength="70.834" x="197.2744" y="418.8613">Colleague2</text></g><g><title>Colleague1</title><rect fill="#FFFFFF" height="120.7031" style="stroke:#181818;stroke-width:1;" width="10" x="42.417" y="108.5703"/></g><g><title>Colleague1</title><rect fill="#FFFFFF" height="30" style="stroke:#181818;stroke-width:1;" width="10" x="47.417" y="138.9219"/></g><g><title>Colleague1</title><rect fill="#FFFFFF" height="30" style="stroke:#181818;stroke-width:1;" width="10" x="42.417" y="350.3281"/></g><g><title>Mediator</title><rect fill="#FFFFFF" height="120.7031" style="stroke:#181818;stroke-width:1;" width="10" x="135.0542" y="108.5703"/></g><g><title>Mediator</title><rect fill="#FFFFFF" height="120.7031" style="stroke:#181818;stroke-width:1;" width="10" x="135.0542" y="259.625"/></g><g><title>Colleague2</title><rect fill="#FFFFFF" height="30" style="stroke:#181818;stroke-width:1;" width="10" x="227.6914" y="199.2734"/></g><g><title>Colleague2</title><rect fill="#FFFFFF" height="120.7031" style="stroke:#181818;stroke-width:1;" width="10" x="227.6914" y="259.625"/></g><g><title>Colleague2</title><rect fill="#FFFFFF" height="30" style="stroke:#181818;stroke-width:1;" width="10" x="232.6914" y="289.9766"/></g><g class="message" data-participant-1="Colleague1" data-participant-2="Mediator"><polygon fill="#181818" points="123.0542,104.5703,133.0542,108.5703,123.0542,112.5703,127.0542,108.5703" style="stroke:#181818;stroke-width:1;"/><line style="stroke:#181818;stroke-width:1;stroke-dasharray:2,2;" x1="52.417" x2="129.0542" y1="108.5703" y2="108.5703"/><text fill="#000000" font-family="sans-serif" font-size="13" lengthAdjust="spacing" textLength="68.6372" x="59.417" y="103.7139">mediate(c1)</text></g><g class="message" data-participant-1="Mediator" data-participant-2="Colleague1"><polygon fill="#181818" points="68.417,134.9219,58.417,138.9219,68.417,142.9219,64.417,138.9219" style="stroke:#181818;stroke-width:1;"/><line style="stroke:#181818;stroke-width:1;stroke-dasharray:2,2;" x1="62.417" x2="134.0542" y1="138.9219" y2="138.9219"/><text fill="#000000" font-family="sans-serif" font-size="13" lengthAdjust="spacing" textLength="57.0845" x="74.417" y="134.0654">getState()</text></g><g class="message" data-participant-1="Mediator" data-participant-2="Colleague2"><polygon fill="#181818" points="215.6914,195.2734,225.6914,199.2734,215.6914,203.2734,219.6914,199.2734" style="stroke:#181818;stroke-width:1;"/><line style="stroke:#181818;stroke-width:1;stroke-dasharray:2,2;" x1="145.0542" x2="221.6914" y1="199.2734" y2="199.2734"/><text fill="#000000" font-family="sans-serif" font-size="13" lengthAdjust="spacing" textLength="50.5781" x="152.0542" y="194.417">action2()</text></g><g class="message" data-participant-1="Colleague2" data-participant-2="Mediator"><polygon fill="#181818" points="156.0542,255.625,146.0542,259.625,156.0542,263.625,152.0542,259.625" style="stroke:#181818;stroke-width:1;"/><line style="stroke:#181818;stroke-width:1;stroke-dasharray:2,2;" x1="150.0542" x2="226.6914" y1="259.625" y2="259.625"/><text fill="#000000" font-family="sans-serif" font-size="13" lengthAdjust="spacing" textLength="68.6372" x="162.0542" y="254.7686">mediate(c2)</text></g><g class="message" data-participant-1="Mediator" data-participant-2="Colleague2"><polygon fill="#181818" points="220.6914,285.9766,230.6914,289.9766,220.6914,293.9766,224.6914,289.9766" style="stroke:#181818;stroke-width:1;"/><line style="stroke:#181818;stroke-width:1;stroke-dasharray:2,2;" x1="145.0542" x2="226.6914" y1="289.9766" y2="289.9766"/><text fill="#000000" font-family="sans-serif" font-size="13" lengthAdjust="spacing" textLength="57.0845" x="152.0542" y="285.1201">getState()</text></g><g class="message" data-participant-1="Mediator" data-participant-2="Colleague1"><polygon fill="#181818" points="63.417,346.3281,53.417,350.3281,63.417,354.3281,59.417,350.3281" style="stroke:#181818;stroke-width:1;"/><line style="stroke:#181818;stroke-width:1;stroke-dasharray:2,2;" x1="57.417" x2="134.0542" y1="350.3281" y2="350.3281"/><text fill="#000000" font-family="sans-serif" font-size="13" lengthAdjust="spacing" textLength="50.5781" x="69.417" y="345.4717">action1()</text></g><!--SRC=[AyaioKbLy4rDoKmioIzI24WiAKajokFYSixFoKbDJ2zDDLJGrRL3AB1Io0KpKpMI3JMv4fDBCik070M4SYu5882Bm_I1HK40oLmRNLraSzDJIu9BG0PhmXMZ68Lc1GoafE9J0JSVv0cul17GEf2k_3mZWhOP4RGDeW991cuf5tR7SI4v15VW6c4BN2DY0zU8xC0brhku0zSG7hY6r8XAc2HfWMp41G00]--></g></svg>